<svg id="svg" version="1.1" xmlns="http://www.w3.org/2000/svg" xmlns:xlink="http://www.w3.org/1999/xlink" width="400" height="526.8965517241379" viewBox="0, 0, 400,526.8965517241379"><g id="svgg"><path id="path0" d="M160.000 61.151 C 160.000 61.570,159.616 61.641,158.400 61.446 C 157.093 61.237,156.800 61.308,156.800 61.831 C 156.800 62.361,156.394 62.448,154.450 62.336 C 152.734 62.237,152.150 62.330,152.286 62.683 C 152.501 63.241,150.669 63.813,149.998 63.398 C 149.751 63.246,149.208 63.431,148.791 63.809 C 148.296 64.256,147.607 64.433,146.816 64.317 C 145.983 64.195,145.600 64.306,145.600 64.669 C 145.600 64.992,145.130 65.200,144.400 65.200 C 143.740 65.200,143.200 65.380,143.200 65.600 C 143.200 65.820,142.952 66.000,142.649 66.000 C 142.346 66.000,141.874 66.270,141.600 66.600 C 141.326 66.930,140.764 67.200,140.351 67.200 C 139.938 67.200,139.600 67.380,139.600 67.600 C 139.600 67.820,139.079 68.000,138.443 68.000 C 137.762 68.000,137.187 68.258,137.046 68.625 C 136.914 68.969,136.612 69.131,136.376 68.985 C 136.140 68.839,135.718 69.033,135.439 69.415 C 135.159 69.797,134.704 70.035,134.428 69.943 C 134.152 69.851,133.339 70.321,132.621 70.988 C 131.903 71.654,130.615 72.555,129.758 72.988 C 128.901 73.421,127.597 74.375,126.861 75.108 C 126.125 75.841,125.335 76.378,125.106 76.302 C 124.878 76.226,123.831 77.072,122.780 78.182 C 121.729 79.292,120.137 80.740,119.244 81.400 C 118.350 82.060,117.615 82.825,117.609 83.100 C 117.604 83.375,117.240 83.600,116.800 83.600 C 116.326 83.600,116.000 83.867,116.000 84.253 C 116.000 84.613,115.100 85.793,114.000 86.876 C 112.900 87.958,112.000 89.012,112.000 89.218 C 112.000 89.557,111.277 90.559,110.178 91.745 C 109.945 91.995,109.405 92.820,108.978 93.578 C 108.123 95.093,107.368 96.131,106.300 97.260 C 105.915 97.667,105.600 98.360,105.600 98.800 C 105.600 99.240,105.420 99.600,105.200 99.600 C 104.980 99.600,104.800 99.960,104.800 100.400 C 104.800 100.840,104.620 101.200,104.400 101.200 C 104.180 101.200,104.000 101.624,104.000 102.142 C 104.000 102.659,103.550 103.569,103.000 104.162 C 102.450 104.756,102.000 105.592,102.000 106.021 C 102.000 106.449,101.735 106.800,101.410 106.800 C 100.968 106.800,100.880 107.100,101.059 107.994 C 101.235 108.877,101.129 109.252,100.652 109.436 C 100.199 109.609,100.078 109.971,100.247 110.645 C 100.392 111.224,100.232 111.997,99.844 112.589 C 99.490 113.129,99.200 114.208,99.200 114.986 C 99.200 115.764,99.020 116.400,98.800 116.400 C 98.580 116.400,98.400 116.831,98.400 117.357 C 98.400 117.884,98.155 118.408,97.855 118.523 C 97.456 118.677,97.364 119.281,97.509 120.790 C 97.687 122.651,97.623 122.869,96.833 123.076 C 96.084 123.271,96.000 123.483,96.245 124.552 C 96.620 126.191,96.613 145.137,96.237 146.300 C 96.024 146.961,96.104 147.200,96.541 147.200 C 97.287 147.200,97.760 149.220,97.429 150.985 C 97.245 151.965,97.339 152.368,97.791 152.541 C 98.126 152.670,98.406 153.096,98.413 153.487 C 98.420 153.879,98.665 154.515,98.957 154.900 C 99.250 155.286,99.404 156.044,99.301 156.585 C 99.186 157.185,99.375 157.832,99.785 158.242 C 100.221 158.678,100.374 159.250,100.219 159.866 C 100.057 160.514,100.175 160.892,100.590 161.052 C 100.938 161.185,101.200 161.772,101.200 162.419 C 101.200 163.043,101.380 163.664,101.600 163.800 C 101.820 163.936,102.000 164.506,102.000 165.066 C 102.000 165.676,102.401 166.400,103.000 166.871 C 103.550 167.304,104.000 168.005,104.000 168.429 C 104.000 168.853,104.180 169.200,104.400 169.200 C 104.620 169.200,104.800 169.740,104.800 170.400 C 104.800 171.060,104.942 171.600,105.116 171.600 C 105.290 171.600,105.958 172.500,106.600 173.600 C 107.242 174.700,107.910 175.600,108.084 175.600 C 108.258 175.600,108.400 175.861,108.400 176.179 C 108.400 176.498,108.850 177.244,109.400 177.838 C 109.950 178.431,110.400 179.123,110.400 179.375 C 110.400 179.627,111.210 180.628,112.200 181.600 C 113.190 182.572,114.000 183.570,114.000 183.818 C 114.000 184.461,124.070 194.344,125.452 195.058 C 126.083 195.384,127.050 196.065,127.600 196.572 C 128.765 197.647,133.055 200.400,133.563 200.400 C 133.754 200.400,134.785 200.986,135.855 201.702 C 137.809 203.010,138.471 203.312,143.122 205.015 C 144.508 205.522,145.858 206.106,146.122 206.311 C 146.385 206.516,147.050 206.809,147.600 206.961 C 151.704 208.094,153.018 208.397,156.200 208.944 C 167.459 210.881,174.161 210.928,185.200 209.149 C 190.509 208.293,193.906 207.382,197.000 205.986 C 197.880 205.589,199.410 204.956,200.400 204.579 C 203.672 203.332,206.508 201.964,208.165 200.833 C 209.064 200.219,210.467 199.404,211.283 199.021 C 212.099 198.638,213.179 197.917,213.683 197.418 C 214.187 196.919,215.140 196.232,215.800 195.890 C 216.460 195.548,218.266 194.128,219.812 192.734 C 221.359 191.340,223.162 189.750,223.819 189.200 C 224.476 188.650,226.017 186.940,227.244 185.400 C 228.472 183.860,229.765 182.360,230.120 182.066 C 230.474 181.772,231.246 180.692,231.835 179.666 C 232.424 178.640,233.334 177.338,233.857 176.774 C 234.689 175.877,236.248 173.102,239.125 167.400 C 240.248 165.175,240.650 164.170,241.555 161.320 C 241.989 159.956,242.603 158.246,242.920 157.520 C 246.989 148.201,247.282 131.981,243.683 115.202 C 243.566 114.654,243.139 113.664,242.736 113.002 C 242.333 112.341,242.002 111.324,242.001 110.743 C 242.001 110.138,241.723 109.579,241.351 109.437 C 240.876 109.254,240.765 108.877,240.934 108.030 C 241.095 107.223,240.989 106.805,240.583 106.649 C 240.262 106.526,240.000 106.070,240.000 105.636 C 240.000 105.202,239.820 104.736,239.600 104.600 C 239.380 104.464,239.200 103.996,239.200 103.560 C 239.200 103.123,238.828 102.369,238.374 101.883 C 237.919 101.397,237.271 100.370,236.933 99.600 C 235.719 96.833,235.391 96.215,234.800 95.572 C 233.818 94.505,232.800 93.203,232.800 93.015 C 232.800 92.584,229.077 87.667,227.806 86.419 C 227.033 85.660,226.400 84.820,226.400 84.553 C 226.400 84.286,225.636 83.467,224.701 82.734 C 222.038 80.643,221.600 80.244,221.600 79.911 C 221.600 79.422,220.003 77.951,219.685 78.147 C 219.528 78.244,218.501 77.441,217.402 76.362 C 216.303 75.283,215.244 74.400,215.050 74.400 C 214.855 74.400,213.819 73.770,212.747 73.000 C 211.675 72.230,210.568 71.600,210.287 71.600 C 210.006 71.600,209.517 71.240,209.200 70.800 C 208.883 70.360,208.322 70.000,207.954 70.000 C 207.587 70.000,207.182 69.730,207.055 69.400 C 206.929 69.070,206.470 68.800,206.036 68.800 C 205.602 68.800,205.136 68.620,205.000 68.400 C 204.864 68.180,204.423 68.000,204.019 68.000 C 203.616 68.000,203.191 67.752,203.074 67.449 C 202.949 67.123,202.484 66.968,201.932 67.068 C 201.317 67.180,200.631 66.891,199.917 66.219 C 199.322 65.659,198.396 65.200,197.860 65.200 C 197.324 65.200,196.791 64.952,196.674 64.649 C 196.536 64.289,196.085 64.171,195.369 64.308 C 194.608 64.453,194.117 64.302,193.758 63.810 C 193.396 63.315,192.944 63.177,192.252 63.351 C 191.033 63.657,189.891 63.261,190.137 62.619 C 190.271 62.272,189.731 62.190,188.167 62.319 C 186.427 62.464,185.964 62.371,185.760 61.840 C 185.562 61.324,185.200 61.239,184.090 61.447 C 183.095 61.634,182.542 61.547,182.236 61.157 C 181.593 60.336,160.000 60.330,160.000 61.151 " stroke="none" fill="#8cb874" fill-rule="evenodd"></path><path id="path1" d="M243.200 112.205 C 243.200 112.318,243.359 112.723,243.553 113.105 C 245.719 117.362,246.552 123.566,246.546 135.400 C 246.542 145.886,245.619 154.114,244.300 155.434 C 244.135 155.598,244.000 156.117,244.000 156.587 C 244.000 157.056,243.852 157.611,243.671 157.820 C 243.490 158.029,243.003 159.280,242.589 160.600 C 242.174 161.920,241.693 163.171,241.518 163.380 C 241.343 163.589,241.200 164.174,241.200 164.680 C 241.200 165.186,241.020 165.600,240.800 165.600 C 240.580 165.600,240.400 165.988,240.400 166.462 C 240.400 166.936,239.991 167.881,239.492 168.562 C 238.992 169.243,238.341 170.340,238.045 171.000 C 237.749 171.660,237.311 172.560,237.073 173.000 C 236.834 173.440,236.317 174.420,235.923 175.177 C 235.530 175.934,234.702 177.104,234.084 177.777 C 233.466 178.450,232.700 179.522,232.381 180.159 C 232.062 180.797,231.259 181.877,230.596 182.559 C 229.933 183.242,228.922 184.430,228.349 185.200 C 225.827 188.587,216.246 197.200,214.999 197.200 C 214.870 197.200,214.308 197.656,213.751 198.212 C 213.195 198.769,211.898 199.614,210.870 200.090 C 209.841 200.566,208.910 201.057,208.800 201.181 C 208.355 201.684,205.189 203.600,204.803 203.600 C 204.575 203.600,204.077 203.759,203.695 203.953 C 203.313 204.148,202.550 204.489,202.000 204.713 C 199.010 205.926,197.730 206.477,197.105 206.819 C 196.723 207.029,196.138 207.200,195.805 207.200 C 195.472 207.200,195.200 207.380,195.200 207.600 C 195.200 207.820,194.648 208.000,193.974 208.000 C 193.299 208.000,192.387 208.193,191.947 208.428 C 191.124 208.869,188.941 209.345,184.400 210.074 C 180.830 210.648,161.222 210.937,160.200 210.432 C 159.760 210.214,158.410 209.956,157.200 209.858 C 154.391 209.632,150.712 208.847,150.220 208.369 C 150.011 208.166,149.341 208.000,148.732 208.000 C 148.123 208.000,147.034 207.675,146.312 207.277 C 145.590 206.880,144.370 206.313,143.600 206.017 C 141.320 205.142,139.447 204.357,138.705 203.966 C 138.323 203.765,137.800 203.600,137.543 203.600 C 137.286 203.600,136.519 203.190,135.838 202.688 C 135.157 202.187,133.742 201.347,132.694 200.823 C 131.646 200.298,130.589 199.628,130.345 199.334 C 130.102 199.040,129.699 198.800,129.451 198.800 C 129.203 198.799,128.460 198.330,127.800 197.758 C 127.140 197.185,125.790 196.160,124.800 195.479 C 123.810 194.799,122.242 193.468,121.315 192.521 C 119.479 190.646,118.890 190.428,118.558 191.500 C 118.439 191.885,118.175 192.513,117.971 192.895 C 117.767 193.277,117.600 193.788,117.600 194.031 C 117.600 194.275,117.240 194.931,116.800 195.491 C 116.360 196.050,116.000 196.925,116.000 197.434 C 116.000 197.943,115.750 198.504,115.445 198.680 C 115.139 198.856,114.813 199.360,114.721 199.800 C 114.628 200.240,114.350 200.559,114.103 200.509 C 113.806 200.449,113.729 200.887,113.878 201.802 C 114.048 202.851,113.946 203.246,113.453 203.435 C 113.097 203.572,112.905 203.847,113.028 204.045 C 113.397 204.642,112.766 206.073,112.226 205.865 C 111.883 205.734,111.783 205.976,111.909 206.637 C 112.010 207.166,111.904 207.600,111.673 207.600 C 111.442 207.600,111.196 208.095,111.127 208.700 C 111.057 209.305,110.781 209.757,110.512 209.704 C 110.187 209.640,110.054 210.106,110.112 211.104 C 110.181 212.277,110.058 212.590,109.543 212.552 C 109.023 212.513,108.944 212.723,109.167 213.552 C 109.496 214.779,109.299 216.000,108.771 216.000 C 108.567 216.000,108.400 216.630,108.400 217.400 C 108.400 218.170,108.220 218.800,108.000 218.800 C 107.780 218.800,107.600 219.250,107.600 219.800 C 107.600 220.415,107.373 220.800,107.010 220.800 C 106.565 220.800,106.480 221.101,106.665 222.023 C 106.861 223.006,106.761 223.285,106.153 223.444 C 105.526 223.608,105.422 223.944,105.539 225.421 C 105.648 226.788,105.544 227.200,105.089 227.200 C 104.626 227.200,104.542 227.587,104.700 228.993 C 104.861 230.421,104.767 230.838,104.234 231.042 C 103.693 231.250,103.615 231.626,103.823 233.014 C 104.041 234.465,103.959 234.794,103.293 235.150 C 102.727 235.453,102.560 235.857,102.699 236.586 C 102.837 237.305,102.720 237.600,102.296 237.600 C 101.822 237.600,101.741 237.983,101.907 239.452 C 102.071 240.904,101.974 241.383,101.457 241.672 C 100.916 241.975,100.844 242.435,101.057 244.243 C 101.292 246.245,101.240 246.464,100.488 246.661 C 99.980 246.794,99.711 247.140,99.792 247.557 C 100.278 250.080,100.109 252.800,99.466 252.800 C 99.050 252.800,98.973 253.506,99.118 256.000 C 99.278 258.772,99.215 259.200,98.648 259.200 C 98.090 259.200,98.031 259.524,98.251 261.392 C 98.468 263.245,98.402 263.624,97.819 263.848 C 97.221 264.077,97.166 264.473,97.404 266.836 C 97.714 269.922,97.357 272.800,96.665 272.800 C 96.317 272.800,96.200 278.594,96.200 295.800 C 96.200 312.708,96.320 318.800,96.655 318.800 C 97.323 318.800,97.688 321.999,97.379 325.138 C 97.143 327.531,97.198 327.913,97.809 328.148 C 98.394 328.373,98.471 328.745,98.274 330.408 C 98.078 332.063,98.146 332.400,98.675 332.400 C 99.225 332.400,99.284 332.867,99.101 335.800 C 98.938 338.401,99.008 339.200,99.399 339.200 C 100.051 339.200,100.356 341.252,99.997 343.216 C 99.757 344.528,99.829 344.767,100.519 344.947 C 101.245 345.137,101.295 345.380,101.065 347.578 C 100.853 349.614,100.912 350.000,101.436 350.000 C 101.927 350.000,102.036 350.390,101.948 351.826 C 101.875 353.021,102.020 353.765,102.371 353.982 C 102.746 354.214,102.825 354.742,102.636 355.750 C 102.418 356.912,102.477 357.145,102.947 356.965 C 103.657 356.692,104.164 358.052,103.791 359.229 C 103.624 359.755,103.778 360.333,104.212 360.813 C 104.664 361.313,104.833 361.993,104.712 362.821 C 104.592 363.639,104.714 364.146,105.064 364.280 C 105.387 364.404,105.600 365.115,105.600 366.071 C 105.600 366.971,105.869 367.926,106.221 368.278 C 106.631 368.688,106.760 369.272,106.600 369.999 C 106.423 370.808,106.535 371.166,107.025 371.354 C 107.453 371.518,107.617 371.894,107.483 372.405 C 107.348 372.920,107.473 373.200,107.837 373.200 C 108.203 373.200,108.404 373.656,108.413 374.500 C 108.420 375.215,108.671 376.123,108.970 376.519 C 109.270 376.914,109.432 377.556,109.330 377.947 C 109.228 378.337,109.427 378.890,109.772 379.177 C 110.117 379.463,110.400 380.216,110.400 380.849 C 110.400 381.482,110.580 382.000,110.800 382.000 C 111.020 382.000,111.200 382.540,111.200 383.200 C 111.200 383.860,111.380 384.400,111.600 384.400 C 111.820 384.400,112.000 384.741,112.000 385.157 C 112.000 385.574,112.267 386.017,112.593 386.142 C 113.018 386.305,113.117 386.713,112.943 387.585 C 112.752 388.540,112.839 388.800,113.350 388.800 C 113.772 388.800,114.000 389.142,114.000 389.776 C 114.000 390.313,114.197 390.875,114.438 391.024 C 114.680 391.173,114.803 391.801,114.712 392.420 C 114.589 393.258,114.733 393.594,115.275 393.736 C 115.716 393.851,115.915 394.157,115.779 394.511 C 115.654 394.836,115.832 395.203,116.177 395.336 C 116.520 395.467,116.800 395.851,116.800 396.187 C 116.800 396.524,116.980 396.800,117.200 396.800 C 117.420 396.800,117.600 397.340,117.600 398.000 C 117.600 398.660,117.780 399.200,118.000 399.200 C 118.220 399.200,118.400 399.541,118.400 399.957 C 118.400 400.374,118.691 400.826,119.046 400.962 C 119.480 401.129,119.630 401.532,119.504 402.192 C 119.369 402.897,119.582 403.375,120.258 403.882 C 120.776 404.271,121.200 404.885,121.200 405.246 C 121.200 405.607,121.459 406.117,121.776 406.380 C 122.093 406.643,122.254 407.114,122.135 407.426 C 122.015 407.738,122.206 408.104,122.558 408.239 C 122.911 408.375,123.200 408.826,123.200 409.243 C 123.200 409.659,123.380 410.000,123.600 410.000 C 123.820 410.000,124.000 410.407,124.000 410.904 C 124.000 411.401,124.342 412.021,124.760 412.282 C 125.563 412.784,126.800 414.954,126.800 415.861 C 126.800 416.158,126.980 416.400,127.200 416.400 C 127.420 416.400,127.600 416.741,127.600 417.157 C 127.600 417.574,127.870 418.018,128.200 418.145 C 128.530 418.271,128.800 418.651,128.800 418.987 C 128.800 419.324,128.980 419.600,129.200 419.600 C 129.420 419.600,129.600 419.870,129.600 420.200 C 129.600 420.530,129.780 420.800,130.000 420.800 C 130.220 420.800,130.400 421.070,130.400 421.400 C 130.400 421.730,130.567 422.000,130.771 422.000 C 131.155 422.000,132.400 424.226,132.400 424.914 C 132.400 425.129,133.030 425.900,133.800 426.626 C 134.570 427.352,135.200 428.138,135.200 428.373 C 135.200 428.608,135.380 428.800,135.600 428.800 C 135.820 428.800,136.000 428.991,136.000 429.224 C 136.000 429.705,138.282 432.895,139.703 434.400 C 140.222 434.950,141.085 436.029,141.620 436.798 C 142.156 437.567,143.360 438.951,144.297 439.875 C 145.234 440.798,146.003 441.789,146.007 442.077 C 146.014 442.649,147.705 444.398,148.256 444.404 C 148.445 444.406,149.050 444.991,149.600 445.704 C 150.869 447.349,152.251 448.731,153.896 450.000 C 154.609 450.550,155.194 451.231,155.196 451.513 C 155.198 451.794,155.470 452.129,155.800 452.255 C 156.130 452.382,156.400 452.756,156.400 453.086 C 156.400 453.451,156.631 453.597,156.993 453.458 C 157.367 453.314,158.482 454.110,160.016 455.615 C 161.352 456.927,162.623 458.000,162.840 458.000 C 163.057 458.000,163.720 458.450,164.313 459.000 C 164.907 459.550,165.533 460.000,165.707 460.000 C 165.979 460.000,167.773 461.495,169.428 463.100 C 169.711 463.375,170.226 463.600,170.571 463.600 C 170.917 463.600,171.200 463.780,171.200 464.000 C 171.200 464.220,171.478 464.400,171.818 464.400 C 172.158 464.400,172.870 464.805,173.399 465.300 C 175.099 466.890,175.554 467.200,176.183 467.200 C 176.522 467.200,176.800 467.380,176.800 467.600 C 176.800 467.820,177.141 468.000,177.557 468.000 C 177.974 468.000,178.417 468.267,178.542 468.593 C 178.667 468.920,179.023 469.089,179.333 468.970 C 179.643 468.851,180.177 469.034,180.520 469.377 C 180.863 469.720,181.336 470.000,181.571 470.000 C 181.807 470.000,182.000 470.180,182.000 470.400 C 182.000 470.620,182.270 470.800,182.600 470.800 C 182.930 470.800,183.200 470.980,183.200 471.200 C 183.200 471.420,183.721 471.600,184.357 471.600 C 185.017 471.600,185.613 471.858,185.745 472.200 C 185.871 472.530,186.330 472.800,186.764 472.800 C 187.198 472.800,187.664 472.980,187.800 473.200 C 187.936 473.420,188.577 473.600,189.224 473.600 C 189.871 473.600,190.400 473.784,190.400 474.010 C 190.400 474.558,192.382 475.421,193.943 475.554 C 194.241 475.579,194.399 475.825,194.293 476.100 C 194.161 476.443,194.555 476.600,195.550 476.600 C 196.484 476.600,196.965 476.775,196.903 477.092 C 196.832 477.451,197.290 477.518,198.603 477.338 C 200.123 477.129,200.400 477.196,200.400 477.770 C 200.400 478.344,200.668 478.409,202.136 478.189 C 203.448 477.992,204.026 478.084,204.507 478.564 C 204.857 478.914,205.681 479.200,206.338 479.200 C 206.995 479.200,207.605 479.414,207.692 479.676 C 207.796 479.988,208.639 480.116,210.127 480.047 C 211.747 479.972,212.463 480.098,212.610 480.483 C 212.920 481.290,239.870 481.258,240.370 480.449 C 240.620 480.044,241.359 479.944,243.155 480.074 C 245.102 480.215,245.600 480.133,245.600 479.673 C 245.600 479.238,245.940 479.150,246.976 479.319 C 248.023 479.489,248.304 479.414,248.147 479.007 C 247.877 478.301,249.300 477.871,250.809 478.202 C 251.763 478.411,252.000 478.329,252.000 477.790 C 252.000 477.245,252.306 477.145,253.592 477.268 C 254.632 477.367,255.251 477.243,255.379 476.910 C 255.487 476.629,256.211 476.400,256.987 476.400 C 257.764 476.400,258.400 476.220,258.400 476.000 C 258.400 475.780,258.643 475.600,258.940 475.600 C 259.238 475.600,260.351 475.138,261.413 474.572 C 262.476 474.007,263.673 473.630,264.073 473.735 C 264.521 473.852,264.800 473.709,264.800 473.363 C 264.800 473.025,265.211 472.800,265.829 472.800 C 266.394 472.800,267.137 472.520,267.480 472.177 C 267.823 471.834,268.335 471.643,268.618 471.752 C 268.902 471.860,269.241 471.670,269.372 471.329 C 269.520 470.943,269.910 470.788,270.405 470.917 C 270.868 471.038,271.200 470.927,271.200 470.651 C 271.200 469.987,272.757 468.726,273.221 469.013 C 273.433 469.144,273.719 468.955,273.858 468.593 C 274.016 468.182,274.399 468.011,274.880 468.137 C 275.328 468.254,275.740 468.101,275.867 467.769 C 275.987 467.456,276.330 467.200,276.629 467.200 C 276.928 467.200,277.722 466.663,278.393 466.007 C 279.064 465.351,280.375 464.445,281.307 463.994 C 284.089 462.647,285.406 461.760,286.881 460.241 C 287.651 459.449,288.518 458.800,288.809 458.800 C 289.099 458.800,290.113 457.990,291.062 457.000 C 292.010 456.010,292.878 455.200,292.989 455.200 C 293.558 455.200,306.427 443.048,306.755 442.200 C 306.840 441.980,307.200 441.507,307.555 441.149 C 307.910 440.791,308.560 439.981,309.000 439.349 C 309.440 438.717,310.475 437.518,311.300 436.685 C 312.125 435.851,312.800 434.996,312.800 434.785 C 312.800 434.573,312.936 434.400,313.102 434.400 C 313.269 434.400,313.654 433.837,313.959 433.148 C 314.263 432.460,314.959 431.515,315.504 431.048 C 316.049 430.582,317.204 429.084,318.071 427.719 C 318.938 426.355,320.004 425.126,320.440 424.987 C 321.004 424.808,321.163 424.512,320.989 423.966 C 320.831 423.467,320.966 423.111,321.372 422.955 C 321.718 422.823,322.000 422.374,322.000 421.957 C 322.000 421.541,322.136 421.200,322.302 421.200 C 322.469 421.200,322.854 420.637,323.159 419.948 C 323.463 419.260,324.137 418.327,324.656 417.876 C 325.175 417.425,325.600 416.827,325.600 416.548 C 325.600 416.268,325.898 415.873,326.262 415.669 C 326.668 415.442,326.825 415.042,326.669 414.634 C 326.513 414.230,326.646 413.880,327.007 413.742 C 327.333 413.617,327.600 413.174,327.600 412.757 C 327.600 412.341,327.780 412.000,328.000 412.000 C 328.220 412.000,328.400 411.621,328.400 411.158 C 328.400 410.694,328.850 409.961,329.400 409.529 C 329.950 409.096,330.400 408.395,330.400 407.971 C 330.400 407.547,330.580 407.200,330.800 407.200 C 331.020 407.200,331.200 406.834,331.200 406.387 C 331.200 405.941,331.459 405.476,331.775 405.354 C 332.098 405.230,332.246 404.864,332.113 404.517 C 331.980 404.171,332.150 403.748,332.501 403.551 C 332.845 403.359,333.042 402.882,332.940 402.490 C 332.835 402.089,333.199 401.260,333.776 400.589 C 334.339 399.935,334.799 399.169,334.800 398.887 C 334.800 398.606,335.075 398.269,335.412 398.140 C 335.767 398.004,335.934 397.622,335.810 397.232 C 335.692 396.861,335.861 396.207,336.185 395.779 C 336.509 395.351,336.780 394.685,336.787 394.300 C 336.794 393.915,337.066 393.600,337.390 393.600 C 337.822 393.600,337.920 393.302,337.757 392.487 C 337.586 391.631,337.784 391.125,338.613 390.296 C 339.236 389.673,339.595 388.965,339.463 388.620 C 339.337 388.292,339.496 387.761,339.817 387.440 C 340.138 387.119,340.400 386.414,340.400 385.871 C 340.400 385.329,340.667 384.783,340.993 384.658 C 341.418 384.495,341.517 384.087,341.344 383.221 C 341.165 382.323,341.268 381.949,341.748 381.764 C 342.186 381.596,342.321 381.226,342.168 380.616 C 342.031 380.070,342.190 379.467,342.571 379.086 C 342.917 378.740,343.200 378.174,343.200 377.829 C 343.200 377.483,343.380 377.200,343.600 377.200 C 343.820 377.200,344.000 376.654,344.000 375.987 C 344.000 375.270,344.249 374.679,344.609 374.541 C 345.065 374.366,345.155 373.965,344.965 372.954 C 344.762 371.870,344.840 371.600,345.355 371.600 C 345.851 371.600,346.000 371.191,346.000 369.833 C 346.000 368.795,346.202 367.999,346.490 367.903 C 346.800 367.800,346.936 367.126,346.859 366.070 C 346.787 365.070,346.911 364.400,347.169 364.400 C 347.406 364.400,347.600 363.950,347.600 363.400 C 347.600 362.747,347.824 362.400,348.245 362.400 C 348.761 362.400,348.838 362.130,348.634 361.039 C 348.446 360.037,348.559 359.498,349.063 358.994 C 349.554 358.503,349.720 357.771,349.647 356.408 C 349.575 355.044,349.711 354.443,350.127 354.283 C 350.558 354.118,350.657 353.606,350.510 352.303 C 350.364 351.001,350.485 350.372,350.976 349.881 C 351.461 349.396,351.570 348.849,351.382 347.844 C 351.083 346.248,351.442 344.800,352.138 344.800 C 352.460 344.800,352.571 344.269,352.469 343.203 C 352.362 342.087,352.487 341.542,352.883 341.390 C 353.312 341.225,353.407 340.595,353.277 338.792 C 353.134 336.824,353.222 336.367,353.781 336.152 C 354.367 335.927,354.422 335.503,354.187 332.995 C 353.889 329.815,354.148 328.400,355.027 328.400 C 355.698 328.400,355.691 328.527,355.200 325.200 C 354.769 322.284,355.069 318.800,355.752 318.800 C 356.078 318.800,356.200 312.576,356.200 296.000 C 356.200 279.428,356.078 273.200,355.752 273.200 C 355.226 273.200,354.689 269.134,354.986 267.395 C 355.530 264.206,355.528 263.600,354.973 263.600 C 354.151 263.600,353.866 261.906,354.170 258.826 C 354.400 256.496,354.342 256.063,353.773 255.845 C 353.222 255.633,353.136 255.144,353.273 252.995 C 353.397 251.050,353.308 250.400,352.919 250.400 C 352.246 250.400,352.229 248.135,352.900 247.865 C 353.285 247.710,353.279 247.656,352.876 247.632 C 352.586 247.614,352.480 247.395,352.638 247.138 C 352.824 246.838,352.747 246.786,352.417 246.989 C 351.581 247.506,351.177 246.340,351.436 244.158 C 351.638 242.450,351.564 242.072,350.984 241.849 C 350.408 241.628,350.330 241.248,350.525 239.600 C 350.712 238.028,350.627 237.543,350.119 237.259 C 349.611 236.975,349.531 236.514,349.731 235.050 C 349.934 233.569,349.867 233.200,349.392 233.200 C 348.971 233.200,348.800 232.751,348.800 231.643 C 348.800 230.628,348.591 230.005,348.200 229.855 C 347.870 229.729,347.600 229.180,347.600 228.636 C 347.600 228.092,347.399 227.523,347.154 227.372 C 346.888 227.207,346.792 226.473,346.916 225.548 C 347.078 224.342,346.990 224.000,346.520 224.000 C 346.058 224.000,345.951 223.629,346.066 222.423 C 346.189 221.133,346.077 220.809,345.452 220.645 C 344.825 220.481,344.728 220.197,344.914 219.054 C 345.081 218.023,344.981 217.601,344.526 217.427 C 344.090 217.259,343.960 216.791,344.076 215.796 C 344.189 214.834,344.078 214.400,343.720 214.400 C 343.434 214.400,343.200 214.207,343.200 213.971 C 343.200 213.736,342.921 213.263,342.579 212.922 C 342.169 212.512,342.040 211.928,342.200 211.201 C 342.372 210.415,342.264 210.033,341.821 209.863 C 341.479 209.732,341.200 209.169,341.200 208.613 C 341.200 208.056,341.020 207.600,340.800 207.600 C 340.580 207.600,340.400 206.970,340.400 206.200 C 340.400 205.430,340.220 204.800,340.000 204.800 C 339.780 204.800,339.600 204.279,339.600 203.643 C 339.600 202.950,339.343 202.387,338.958 202.239 C 338.606 202.104,338.414 201.740,338.533 201.430 C 338.652 201.120,338.491 200.767,338.175 200.646 C 337.859 200.524,337.600 200.059,337.600 199.613 C 337.600 199.166,337.420 198.800,337.200 198.800 C 336.980 198.800,336.800 198.282,336.800 197.649 C 336.800 197.016,336.522 196.267,336.182 195.985 C 335.842 195.703,335.659 195.224,335.775 194.921 C 335.891 194.618,335.720 194.267,335.393 194.142 C 335.067 194.017,334.800 193.484,334.800 192.957 C 334.800 192.431,334.620 192.000,334.400 192.000 C 334.180 192.000,334.000 191.807,334.000 191.571 C 334.000 191.336,333.720 190.863,333.377 190.520 C 333.034 190.177,332.843 189.665,332.952 189.382 C 333.060 189.098,332.891 188.767,332.575 188.646 C 332.259 188.524,332.000 188.070,332.000 187.636 C 332.000 187.202,331.820 186.736,331.600 186.600 C 331.380 186.464,331.200 186.003,331.200 185.576 C 331.200 185.149,331.020 184.800,330.800 184.800 C 330.580 184.800,330.400 184.465,330.400 184.056 C 330.400 183.647,329.950 182.974,329.400 182.561 C 328.849 182.147,328.400 181.404,328.400 180.905 C 328.400 180.407,328.220 180.000,328.000 180.000 C 327.780 180.000,327.600 179.640,327.600 179.200 C 327.600 178.760,327.420 178.400,327.200 178.400 C 326.980 178.400,326.800 178.034,326.800 177.587 C 326.800 177.141,326.530 176.671,326.200 176.545 C 325.870 176.418,325.600 176.017,325.600 175.653 C 325.600 175.290,325.258 174.779,324.840 174.518 C 324.422 174.257,323.570 172.998,322.947 171.722 C 321.778 169.327,321.107 168.343,319.900 167.254 C 319.515 166.906,319.200 166.302,319.200 165.911 C 319.200 165.520,319.020 165.200,318.800 165.200 C 318.580 165.200,318.400 164.961,318.400 164.670 C 318.400 164.378,317.950 163.717,317.400 163.200 C 316.850 162.683,316.400 161.944,316.400 161.557 C 316.400 161.170,316.085 160.753,315.700 160.629 C 315.315 160.506,314.640 159.864,314.200 159.203 C 313.760 158.543,313.265 158.002,313.100 158.001 C 312.935 158.001,312.800 157.729,312.800 157.398 C 312.800 157.066,311.990 155.997,311.000 155.021 C 310.010 154.045,309.200 153.062,309.200 152.837 C 309.200 152.612,307.956 151.145,306.437 149.577 C 304.917 148.010,303.522 146.562,303.337 146.361 C 301.456 144.316,293.472 136.800,293.181 136.800 C 292.971 136.800,292.800 136.620,292.800 136.400 C 292.800 136.180,292.599 136.000,292.353 136.000 C 291.756 136.000,288.800 133.022,288.800 132.420 C 288.800 132.144,288.496 132.042,288.073 132.177 C 287.604 132.326,287.012 132.052,286.403 131.404 C 285.885 130.852,285.313 130.400,285.133 130.400 C 284.848 130.400,284.246 129.943,282.231 128.200 C 281.494 127.562,280.049 126.800,279.577 126.800 C 279.338 126.800,278.892 126.575,278.585 126.300 C 277.262 125.113,276.809 124.800,276.417 124.800 C 276.188 124.800,276.000 124.620,276.000 124.400 C 276.000 124.180,275.640 124.000,275.200 124.000 C 274.760 124.000,274.400 123.857,274.400 123.682 C 274.400 123.507,273.590 123.030,272.600 122.622 C 271.610 122.213,270.800 121.727,270.800 121.540 C 270.800 121.353,270.384 121.200,269.875 121.200 C 269.367 121.200,268.526 120.804,268.007 120.321 C 267.488 119.837,266.698 119.415,266.252 119.382 C 265.806 119.349,265.372 119.115,265.287 118.861 C 265.202 118.607,264.698 118.400,264.167 118.400 C 263.635 118.400,263.200 118.220,263.200 118.000 C 263.200 117.780,262.585 117.600,261.833 117.600 C 261.082 117.600,260.393 117.379,260.303 117.109 C 260.213 116.838,259.719 116.613,259.205 116.609 C 258.068 116.598,257.673 115.744,258.678 115.470 C 259.075 115.362,258.658 115.366,257.750 115.480 C 256.757 115.604,255.991 115.510,255.827 115.243 C 255.676 114.999,255.023 114.800,254.376 114.800 C 253.593 114.800,253.200 114.598,253.200 114.195 C 253.200 113.719,252.877 113.642,251.681 113.833 C 250.546 114.015,250.024 113.911,249.619 113.423 C 249.205 112.924,248.684 112.828,247.415 113.019 C 246.163 113.206,245.625 113.112,245.228 112.634 C 244.746 112.053,243.200 111.726,243.200 112.205 " stroke="none" fill="#fbdc7c" fill-rule="evenodd"></path><path id="path2" d="M160.141 59.813 C 159.477 60.316,159.639 60.376,161.700 60.387 C 163.397 60.397,164.000 60.255,164.000 59.847 C 164.000 59.098,161.119 59.072,160.141 59.813 M178.223 59.886 C 178.078 60.262,178.555 60.400,180.000 60.400 C 181.467 60.400,181.923 60.265,181.773 59.874 C 181.509 59.185,178.488 59.195,178.223 59.886 M156.800 60.800 C 156.800 61.020,157.261 61.200,157.824 61.200 C 158.404 61.200,158.740 61.027,158.600 60.800 C 158.464 60.580,158.003 60.400,157.576 60.400 C 157.149 60.400,156.800 60.580,156.800 60.800 M183.600 60.800 C 183.600 61.020,183.960 61.200,184.400 61.200 C 184.840 61.200,185.200 61.020,185.200 60.800 C 185.200 60.580,184.840 60.400,184.400 60.400 C 183.960 60.400,183.600 60.580,183.600 60.800 M152.400 61.600 C 152.400 61.820,152.850 62.000,153.400 62.000 C 153.950 62.000,154.400 61.820,154.400 61.600 C 154.400 61.380,153.950 61.200,153.400 61.200 C 152.850 61.200,152.400 61.380,152.400 61.600 M188.000 61.600 C 188.000 61.820,188.450 62.000,189.000 62.000 C 189.550 62.000,190.000 61.820,190.000 61.600 C 190.000 61.380,189.550 61.200,189.000 61.200 C 188.450 61.200,188.000 61.380,188.000 61.600 M148.638 62.295 C 148.249 62.684,148.830 63.200,149.657 63.200 C 150.102 63.200,150.397 62.991,150.312 62.735 C 150.146 62.238,148.997 61.936,148.638 62.295 M192.000 62.600 C 192.000 62.930,192.270 63.200,192.600 63.200 C 192.930 63.200,193.200 62.930,193.200 62.600 C 193.200 62.270,192.930 62.000,192.600 62.000 C 192.270 62.000,192.000 62.270,192.000 62.600 M146.000 63.224 C 146.000 63.457,145.820 63.536,145.600 63.400 C 145.380 63.264,145.200 63.343,145.200 63.576 C 145.200 64.228,146.684 64.078,146.945 63.400 C 147.085 63.035,146.945 62.800,146.587 62.800 C 146.264 62.800,146.000 62.991,146.000 63.224 M195.066 63.427 C 195.187 63.742,195.752 64.000,196.323 64.000 C 197.525 64.000,197.066 63.282,195.694 63.018 C 195.085 62.901,194.908 63.016,195.066 63.427 M198.000 64.400 C 198.000 64.620,198.450 64.800,199.000 64.800 C 199.550 64.800,200.000 64.980,200.000 65.200 C 200.000 65.420,200.208 65.600,200.462 65.600 C 200.724 65.600,200.611 65.254,200.200 64.800 C 199.446 63.967,198.000 63.704,198.000 64.400 M139.467 65.867 C 139.006 66.327,139.175 66.800,139.800 66.800 C 140.130 66.800,140.400 66.530,140.400 66.200 C 140.400 65.575,139.927 65.406,139.467 65.867 M202.100 65.892 C 201.228 66.196,201.560 66.800,202.600 66.800 C 203.150 66.800,203.600 66.639,203.600 66.443 C 203.600 65.982,202.743 65.668,202.100 65.892 M136.800 67.200 C 136.800 67.420,137.160 67.600,137.600 67.600 C 138.040 67.600,138.400 67.420,138.400 67.200 C 138.400 66.980,138.040 66.800,137.600 66.800 C 137.160 66.800,136.800 66.980,136.800 67.200 M204.400 67.200 C 204.400 67.420,204.670 67.600,205.000 67.600 C 205.330 67.600,205.600 67.420,205.600 67.200 C 205.600 66.980,205.330 66.800,205.000 66.800 C 204.670 66.800,204.400 66.980,204.400 67.200 M134.800 68.000 C 134.800 68.220,134.575 68.406,134.300 68.413 C 133.550 68.433,131.840 69.977,132.198 70.310 C 132.369 70.470,132.590 70.375,132.688 70.100 C 132.786 69.825,133.192 69.600,133.591 69.600 C 133.989 69.600,134.418 69.330,134.545 69.000 C 134.671 68.670,135.040 68.400,135.364 68.400 C 135.688 68.400,136.064 68.220,136.200 68.000 C 136.336 67.780,136.077 67.600,135.624 67.600 C 135.171 67.600,134.800 67.780,134.800 68.000 M208.244 68.729 C 207.977 69.160,209.598 70.542,209.938 70.174 C 210.082 70.018,209.975 69.810,209.700 69.712 C 209.425 69.614,209.200 69.278,209.200 68.967 C 209.200 68.352,208.573 68.196,208.244 68.729 M210.600 70.800 C 210.736 71.020,211.107 71.200,211.424 71.200 C 211.741 71.200,212.000 71.020,212.000 70.800 C 212.000 70.580,211.629 70.400,211.176 70.400 C 210.723 70.400,210.464 70.580,210.600 70.800 M129.200 71.813 C 129.200 72.460,129.825 72.607,130.174 72.042 C 130.296 71.845,130.126 71.581,129.798 71.454 C 129.435 71.315,129.200 71.456,129.200 71.813 M213.100 71.865 C 213.375 71.976,213.600 72.322,213.600 72.633 C 213.600 72.945,213.780 73.200,214.000 73.200 C 214.646 73.200,214.458 72.108,213.767 71.843 C 213.419 71.709,213.014 71.614,212.867 71.632 C 212.720 71.649,212.825 71.754,213.100 71.865 M127.467 72.267 C 127.006 72.727,127.175 73.200,127.800 73.200 C 128.130 73.200,128.400 72.930,128.400 72.600 C 128.400 71.975,127.927 71.806,127.467 72.267 M215.908 74.000 C 216.380 74.440,216.954 74.800,217.183 74.800 C 217.412 74.800,217.600 74.993,217.600 75.229 C 217.600 75.868,218.795 76.941,219.119 76.593 C 219.274 76.427,219.175 76.210,218.900 76.112 C 218.625 76.014,218.400 75.709,218.400 75.434 C 218.400 75.160,217.950 74.694,217.400 74.400 C 216.850 74.106,216.400 73.715,216.400 73.532 C 216.400 73.350,216.096 73.200,215.725 73.200 C 215.152 73.200,215.180 73.322,215.908 74.000 M123.643 75.623 C 123.117 76.061,122.827 76.551,122.998 76.710 C 123.169 76.870,123.390 76.775,123.488 76.500 C 123.586 76.225,123.922 76.000,124.233 76.000 C 124.545 76.000,124.800 75.730,124.800 75.400 C 124.800 74.656,124.807 74.655,123.643 75.623 M221.200 78.029 C 221.200 78.586,222.374 79.760,222.652 79.481 C 222.770 79.363,222.492 78.892,222.033 78.433 C 221.575 77.975,221.200 77.793,221.200 78.029 M117.900 80.357 C 117.515 80.748,117.320 81.187,117.467 81.333 C 117.927 81.794,118.400 81.625,118.400 81.000 C 118.400 80.670,118.580 80.400,118.800 80.400 C 119.020 80.400,119.200 80.220,119.200 80.000 C 119.200 79.413,118.695 79.551,117.900 80.357 M223.323 79.892 C 223.064 79.979,223.364 80.549,224.021 81.222 C 225.252 82.481,225.600 82.648,225.600 81.982 C 225.600 81.341,223.836 79.721,223.323 79.892 M115.615 82.839 C 114.853 83.478,114.457 84.000,114.733 84.000 C 115.253 84.000,117.395 82.057,117.142 81.815 C 117.064 81.740,116.377 82.200,115.615 82.839 M227.048 83.523 C 226.715 84.061,227.881 85.452,228.307 85.026 C 228.456 84.878,228.384 84.631,228.148 84.478 C 227.913 84.325,227.636 83.939,227.533 83.620 C 227.394 83.188,227.270 83.163,227.048 83.523 M111.785 87.175 C 111.912 87.382,111.700 87.728,111.312 87.945 C 110.918 88.166,110.762 88.486,110.958 88.670 C 111.151 88.851,111.390 88.775,111.488 88.500 C 111.586 88.225,111.922 88.000,112.233 88.000 C 112.545 88.000,112.800 87.730,112.800 87.400 C 112.800 87.070,112.519 86.800,112.176 86.800 C 111.833 86.800,111.657 86.969,111.785 87.175 M231.200 89.053 C 231.200 89.314,232.799 90.800,233.080 90.800 C 233.166 90.800,232.914 90.356,232.519 89.813 C 231.835 88.873,231.200 88.507,231.200 89.053 M106.534 94.627 C 105.838 95.382,105.442 96.000,105.653 96.000 C 106.211 96.000,108.082 94.041,107.930 93.616 C 107.858 93.417,107.230 93.872,106.534 94.627 M104.400 97.800 C 104.400 98.130,104.580 98.400,104.800 98.400 C 105.020 98.400,105.200 98.130,105.200 97.800 C 105.200 97.470,105.020 97.200,104.800 97.200 C 104.580 97.200,104.400 97.470,104.400 97.800 M237.810 99.184 C 237.471 99.733,237.771 100.145,238.362 99.942 C 238.604 99.858,238.635 99.576,238.437 99.257 C 238.187 98.855,238.025 98.836,237.810 99.184 M102.492 101.275 C 102.739 102.017,103.600 102.140,103.600 101.433 C 103.600 101.085,103.315 100.800,102.967 100.800 C 102.618 100.800,102.405 101.014,102.492 101.275 M239.600 102.800 C 239.600 103.240,239.780 103.600,240.000 103.600 C 240.220 103.600,240.400 103.240,240.400 102.800 C 240.400 102.360,240.220 102.000,240.000 102.000 C 239.780 102.000,239.600 102.360,239.600 102.800 M241.200 107.200 C 241.200 107.640,241.361 108.000,241.557 108.000 C 242.007 108.000,242.426 106.960,242.106 106.639 C 241.624 106.158,241.200 106.420,241.200 107.200 M99.784 107.627 C 99.639 107.861,99.616 108.149,99.733 108.267 C 100.020 108.553,100.800 108.048,100.800 107.576 C 100.800 107.065,100.109 107.099,99.784 107.627 M98.800 109.967 C 98.800 110.458,99.058 110.800,99.429 110.800 C 99.802 110.800,100.006 110.528,99.929 110.133 C 99.735 109.130,98.800 108.992,98.800 109.967 M242.405 109.700 C 242.421 111.136,242.944 112.000,243.798 112.000 C 244.295 112.000,244.939 112.285,245.228 112.634 C 245.625 113.112,246.163 113.206,247.415 113.019 C 248.684 112.828,249.205 112.924,249.619 113.423 C 250.024 113.911,250.546 114.015,251.681 113.833 C 252.877 113.642,253.200 113.719,253.200 114.195 C 253.200 114.598,253.593 114.800,254.376 114.800 C 255.023 114.800,255.664 114.980,255.800 115.200 C 255.936 115.420,256.467 115.600,256.981 115.600 C 257.494 115.600,258.026 115.890,258.162 116.245 C 258.322 116.663,258.699 116.815,259.229 116.676 C 259.729 116.546,260.134 116.684,260.267 117.031 C 260.397 117.368,261.038 117.600,261.843 117.600 C 262.589 117.600,263.200 117.780,263.200 118.000 C 263.200 118.220,263.635 118.400,264.167 118.400 C 264.698 118.400,265.202 118.607,265.287 118.861 C 265.372 119.115,265.806 119.349,266.252 119.382 C 266.698 119.415,267.488 119.837,268.007 120.321 C 268.526 120.804,269.367 121.200,269.875 121.200 C 270.384 121.200,270.800 121.353,270.800 121.540 C 270.800 121.727,271.610 122.213,272.600 122.622 C 273.590 123.030,274.400 123.507,274.400 123.682 C 274.400 123.857,274.760 124.000,275.200 124.000 C 275.640 124.000,276.000 124.180,276.000 124.400 C 276.000 124.620,276.193 124.800,276.429 124.800 C 276.664 124.800,277.108 125.025,277.415 125.300 C 278.741 126.489,279.191 126.800,279.589 126.800 C 280.331 126.800,282.550 128.284,284.225 129.900 C 284.510 130.175,284.904 130.400,285.102 130.400 C 285.299 130.400,285.885 130.852,286.403 131.404 C 287.012 132.052,287.604 132.326,288.073 132.177 C 288.496 132.042,288.800 132.144,288.800 132.420 C 288.800 133.022,291.756 136.000,292.353 136.000 C 292.599 136.000,292.800 136.180,292.800 136.400 C 292.800 136.620,292.971 136.800,293.181 136.800 C 293.472 136.800,301.456 144.316,303.337 146.361 C 303.522 146.562,304.917 148.010,306.437 149.577 C 307.956 151.145,309.200 152.612,309.200 152.837 C 309.200 153.062,310.010 154.045,311.000 155.021 C 311.990 155.997,312.800 157.066,312.800 157.398 C 312.800 157.729,312.935 158.001,313.100 158.001 C 313.265 158.002,313.760 158.543,314.200 159.203 C 314.640 159.864,315.315 160.506,315.700 160.629 C 316.085 160.753,316.400 161.170,316.400 161.557 C 316.400 161.944,316.850 162.683,317.400 163.200 C 317.950 163.717,318.400 164.378,318.400 164.670 C 318.400 164.961,318.580 165.200,318.800 165.200 C 319.020 165.200,319.200 165.520,319.200 165.911 C 319.200 166.302,319.515 166.906,319.900 167.254 C 321.107 168.343,321.778 169.327,322.947 171.722 C 323.570 172.998,324.422 174.257,324.840 174.518 C 325.258 174.779,325.600 175.290,325.600 175.653 C 325.600 176.017,325.870 176.418,326.200 176.545 C 326.530 176.671,326.800 177.141,326.800 177.587 C 326.800 178.034,326.980 178.400,327.200 178.400 C 327.420 178.400,327.600 178.760,327.600 179.200 C 327.600 179.640,327.780 180.000,328.000 180.000 C 328.220 180.000,328.400 180.407,328.400 180.905 C 328.400 181.404,328.849 182.147,329.400 182.561 C 329.950 182.974,330.400 183.647,330.400 184.056 C 330.400 184.465,330.580 184.800,330.800 184.800 C 331.020 184.800,331.200 185.149,331.200 185.576 C 331.200 186.003,331.380 186.464,331.600 186.600 C 331.820 186.736,332.000 187.202,332.000 187.636 C 332.000 188.070,332.259 188.524,332.575 188.646 C 332.891 188.767,333.060 189.098,332.952 189.382 C 332.843 189.665,333.034 190.177,333.377 190.520 C 333.720 190.863,334.000 191.336,334.000 191.571 C 334.000 191.807,334.180 192.000,334.400 192.000 C 334.620 192.000,334.800 192.431,334.800 192.957 C 334.800 193.484,335.067 194.017,335.393 194.142 C 335.720 194.267,335.891 194.618,335.775 194.921 C 335.659 195.224,335.842 195.703,336.182 195.985 C 336.522 196.267,336.800 197.016,336.800 197.649 C 336.800 198.282,336.980 198.800,337.200 198.800 C 337.420 198.800,337.600 199.166,337.600 199.613 C 337.600 200.059,337.859 200.524,338.175 200.646 C 338.491 200.767,338.652 201.120,338.533 201.430 C 338.414 201.740,338.606 202.104,338.958 202.239 C 339.343 202.387,339.600 202.950,339.600 203.643 C 339.600 204.279,339.780 204.800,340.000 204.800 C 340.220 204.800,340.400 205.430,340.400 206.200 C 340.400 206.970,340.580 207.600,340.800 207.600 C 341.020 207.600,341.200 208.056,341.200 208.613 C 341.200 209.169,341.479 209.732,341.821 209.863 C 342.264 210.033,342.372 210.415,342.200 211.201 C 342.040 211.928,342.169 212.512,342.579 212.922 C 342.921 213.263,343.200 213.736,343.200 213.971 C 343.200 214.207,343.470 214.400,343.800 214.400 C 344.133 214.400,344.400 214.044,344.400 213.600 C 344.400 213.160,344.220 212.800,344.000 212.800 C 343.780 212.800,343.600 212.254,343.600 211.587 C 343.600 210.879,343.351 210.279,343.000 210.145 C 342.630 210.003,342.400 209.395,342.400 208.557 C 342.400 207.811,342.220 207.200,342.000 207.200 C 341.780 207.200,341.600 206.671,341.600 206.024 C 341.600 205.377,341.420 204.736,341.200 204.600 C 340.980 204.464,340.800 204.023,340.800 203.619 C 340.800 203.216,340.530 202.782,340.200 202.655 C 339.870 202.529,339.600 202.070,339.600 201.636 C 339.600 201.202,339.420 200.736,339.200 200.600 C 338.980 200.464,338.800 200.001,338.800 199.571 C 338.800 199.141,338.631 198.477,338.424 198.095 C 338.217 197.713,337.742 196.545,337.369 195.500 C 336.996 194.455,336.536 193.600,336.346 193.600 C 336.156 193.600,336.000 193.150,336.000 192.600 C 336.000 192.050,335.849 191.600,335.665 191.600 C 335.481 191.600,334.835 190.565,334.230 189.300 C 333.624 188.035,332.965 186.687,332.764 186.305 C 332.564 185.923,332.400 185.338,332.400 185.005 C 332.400 184.672,332.220 184.400,332.000 184.400 C 331.780 184.400,331.600 184.065,331.600 183.656 C 331.600 183.247,331.150 182.574,330.600 182.161 C 330.049 181.747,329.600 181.004,329.600 180.505 C 329.600 180.007,329.420 179.600,329.200 179.600 C 328.980 179.600,328.800 179.240,328.800 178.800 C 328.800 178.360,328.640 178.000,328.443 178.000 C 328.247 178.000,327.974 177.550,327.836 177.000 C 327.698 176.450,327.408 176.000,327.192 176.000 C 326.977 176.000,326.800 175.640,326.800 175.200 C 326.800 174.760,326.648 174.400,326.463 174.400 C 326.278 174.400,325.787 173.770,325.372 173.000 C 324.957 172.230,324.479 171.600,324.309 171.600 C 324.139 171.600,324.000 171.330,324.000 171.000 C 324.000 170.670,323.820 170.400,323.600 170.400 C 323.380 170.400,323.200 170.040,323.200 169.600 C 323.200 169.160,323.020 168.800,322.800 168.800 C 322.580 168.800,322.400 168.568,322.400 168.283 C 322.400 167.999,321.770 167.099,321.000 166.282 C 320.230 165.466,319.600 164.516,319.600 164.171 C 319.600 163.453,318.666 162.400,318.029 162.400 C 317.793 162.400,317.600 162.032,317.600 161.582 C 317.600 160.731,315.947 158.800,315.218 158.800 C 314.988 158.800,314.800 158.530,314.800 158.200 C 314.800 157.870,314.620 157.600,314.400 157.600 C 314.180 157.600,314.000 157.240,314.000 156.800 C 314.000 156.360,313.820 156.000,313.600 156.000 C 313.380 156.000,313.200 155.730,313.200 155.400 C 313.200 155.070,313.012 154.800,312.782 154.800 C 312.239 154.800,310.400 152.961,310.400 152.418 C 310.400 152.188,310.220 152.000,310.000 152.000 C 309.780 152.000,309.600 151.755,309.600 151.456 C 309.600 151.157,309.150 150.574,308.600 150.161 C 308.050 149.748,307.600 149.260,307.600 149.076 C 307.600 148.684,306.572 147.600,306.200 147.600 C 305.837 147.600,304.803 146.523,304.787 146.129 C 304.761 145.484,303.261 144.000,302.636 144.000 C 302.286 144.000,302.000 143.730,302.000 143.400 C 302.000 143.070,301.832 142.800,301.627 142.800 C 301.422 142.800,301.139 142.437,300.998 141.994 C 300.857 141.551,300.594 141.280,300.413 141.392 C 300.232 141.504,299.981 141.326,299.854 140.998 C 299.728 140.669,299.349 140.400,299.013 140.400 C 298.676 140.400,298.400 140.207,298.400 139.971 C 298.400 139.505,297.415 138.400,297.000 138.400 C 296.575 138.400,295.600 137.290,295.600 136.805 C 295.600 136.556,295.439 136.452,295.242 136.574 C 295.045 136.696,294.781 136.526,294.654 136.198 C 294.528 135.869,294.145 135.600,293.804 135.600 C 293.462 135.600,292.208 134.610,291.017 133.400 C 289.780 132.142,288.498 131.200,288.026 131.200 C 287.572 131.200,287.200 130.995,287.200 130.744 C 287.200 130.177,285.990 129.230,285.245 129.213 C 284.940 129.206,284.152 128.570,283.494 127.800 C 282.836 127.030,281.961 126.400,281.549 126.400 C 281.137 126.400,280.800 126.220,280.800 126.000 C 280.800 125.780,280.459 125.600,280.043 125.600 C 279.626 125.600,279.182 125.330,279.055 125.000 C 278.929 124.670,278.503 124.400,278.109 124.400 C 277.715 124.400,277.168 124.040,276.893 123.600 C 276.618 123.160,276.027 122.800,275.579 122.800 C 275.131 122.800,274.280 122.350,273.687 121.800 C 273.093 121.250,272.212 120.800,271.728 120.800 C 271.243 120.800,270.736 120.620,270.600 120.400 C 270.464 120.180,270.046 120.000,269.671 120.000 C 269.297 120.000,268.652 119.550,268.239 119.000 C 267.744 118.341,267.097 118.000,266.344 118.000 C 265.715 118.000,265.200 117.820,265.200 117.600 C 265.200 117.380,264.851 117.200,264.424 117.200 C 263.997 117.200,263.536 117.020,263.400 116.800 C 263.264 116.580,262.638 116.400,262.010 116.400 C 261.381 116.400,260.797 116.192,260.712 115.937 C 260.627 115.682,259.997 115.490,259.311 115.509 C 258.572 115.530,257.975 115.312,257.845 114.972 C 257.724 114.658,257.259 114.400,256.813 114.400 C 256.366 114.400,256.000 114.220,256.000 114.000 C 256.000 113.780,255.370 113.600,254.600 113.600 C 253.830 113.600,253.200 113.420,253.200 113.200 C 253.200 112.980,252.409 112.800,251.443 112.800 C 250.359 112.800,249.608 112.598,249.483 112.273 C 249.358 111.947,248.468 111.710,247.141 111.651 C 245.963 111.599,244.940 111.386,244.867 111.178 C 244.793 110.970,244.388 110.800,243.967 110.800 C 243.467 110.800,243.200 110.522,243.200 110.000 C 243.200 109.560,243.020 109.200,242.800 109.200 C 242.580 109.200,242.402 109.425,242.405 109.700 M98.000 113.400 C 98.000 113.730,98.180 114.000,98.400 114.000 C 98.620 114.000,98.800 113.730,98.800 113.400 C 98.800 113.070,98.620 112.800,98.400 112.800 C 98.180 112.800,98.000 113.070,98.000 113.400 M96.500 118.265 C 95.767 118.561,95.855 120.800,96.600 120.800 C 97.019 120.800,97.200 120.378,97.200 119.400 C 97.200 118.630,97.155 118.014,97.100 118.032 C 97.045 118.049,96.775 118.154,96.500 118.265 M95.467 123.867 C 95.048 124.285,95.155 127.125,95.600 127.400 C 95.847 127.552,96.000 126.871,96.000 125.624 C 96.000 123.572,95.944 123.389,95.467 123.867 M95.200 145.176 C 95.200 145.823,95.380 146.464,95.600 146.600 C 95.838 146.747,96.000 146.271,96.000 145.424 C 96.000 144.641,95.820 144.000,95.600 144.000 C 95.380 144.000,95.200 144.529,95.200 145.176 M96.400 150.344 C 96.400 150.559,96.291 151.019,96.157 151.367 C 95.998 151.782,96.135 152.000,96.557 152.000 C 97.263 152.000,97.452 150.603,96.800 150.200 C 96.580 150.064,96.400 150.129,96.400 150.344 M98.267 156.667 C 97.852 157.082,97.953 158.400,98.400 158.400 C 98.620 158.400,98.800 157.950,98.800 157.400 C 98.800 156.353,98.708 156.226,98.267 156.667 M99.042 160.235 C 98.700 161.127,98.727 161.200,99.400 161.200 C 99.730 161.200,100.000 160.941,100.000 160.624 C 100.000 159.777,99.323 159.503,99.042 160.235 M99.878 163.056 C 99.558 163.375,99.919 164.000,100.424 164.000 C 100.631 164.000,100.800 163.730,100.800 163.400 C 100.800 162.781,100.328 162.605,99.878 163.056 M101.100 165.029 C 100.935 165.196,100.800 165.586,100.800 165.895 C 100.800 166.612,101.952 167.782,102.307 167.426 C 102.456 167.278,102.375 167.031,102.129 166.878 C 101.882 166.725,101.618 166.178,101.540 165.662 C 101.463 165.146,101.265 164.861,101.100 165.029 M102.400 169.000 C 102.400 169.330,102.670 169.600,103.000 169.600 C 103.330 169.600,103.600 169.330,103.600 169.000 C 103.600 168.670,103.330 168.400,103.000 168.400 C 102.670 168.400,102.400 168.670,102.400 169.000 M105.467 174.267 C 105.006 174.727,105.175 175.200,105.800 175.200 C 106.130 175.200,106.400 174.930,106.400 174.600 C 106.400 173.975,105.927 173.806,105.467 174.267 M108.871 179.868 C 108.942 180.234,109.225 180.609,109.500 180.700 C 110.235 180.945,110.110 179.728,109.371 179.444 C 108.932 179.276,108.781 179.404,108.871 179.868 M117.407 191.300 C 117.244 192.125,116.951 192.800,116.755 192.800 C 116.560 192.800,116.400 193.160,116.400 193.600 C 116.400 194.040,116.220 194.400,116.000 194.400 C 115.780 194.400,115.600 194.670,115.600 195.000 C 115.600 195.330,115.423 195.600,115.208 195.600 C 114.992 195.600,114.697 196.095,114.552 196.700 C 114.408 197.305,114.121 198.015,113.914 198.278 C 113.457 198.860,113.649 200.400,114.195 200.516 C 114.412 200.562,114.657 200.240,114.739 199.800 C 114.822 199.360,115.139 198.856,115.445 198.680 C 115.750 198.504,116.000 197.943,116.000 197.434 C 116.000 196.925,116.360 196.050,116.800 195.491 C 117.240 194.931,117.600 194.275,117.600 194.031 C 117.600 193.591,117.823 193.063,118.777 191.242 C 119.209 190.418,119.193 190.317,118.665 190.520 C 118.328 190.649,117.973 190.540,117.877 190.278 C 117.781 190.015,117.569 190.475,117.407 191.300 M112.800 201.718 C 112.800 202.259,112.530 202.926,112.200 203.200 C 111.499 203.782,111.401 205.430,112.045 205.828 C 112.612 206.178,113.260 205.209,113.049 204.326 C 112.961 203.955,113.151 203.551,113.471 203.428 C 113.831 203.290,114.005 202.795,113.927 202.133 C 113.762 200.742,112.800 200.387,112.800 201.718 M110.665 206.832 C 109.933 207.688,109.887 209.625,110.600 209.625 C 110.820 209.625,111.057 209.169,111.127 208.612 C 111.196 208.056,111.421 207.600,111.627 207.600 C 111.832 207.600,112.000 207.240,112.000 206.800 C 112.000 205.774,111.562 205.785,110.665 206.832 M109.167 210.100 C 108.592 211.848,109.184 213.376,110.086 212.474 C 110.569 211.991,110.172 210.000,109.592 210.000 C 109.377 210.000,109.185 210.045,109.167 210.100 M108.000 214.176 C 108.000 214.933,107.820 215.664,107.600 215.800 C 107.380 215.936,107.200 216.577,107.200 217.224 C 107.200 217.871,107.020 218.400,106.800 218.400 C 106.580 218.400,106.400 218.828,106.400 219.351 C 106.400 219.874,106.130 220.526,105.800 220.800 C 104.916 221.534,104.996 223.701,105.900 223.515 C 106.408 223.410,106.584 223.018,106.541 222.086 C 106.501 221.223,106.666 220.800,107.041 220.800 C 107.371 220.800,107.600 220.390,107.600 219.800 C 107.600 219.250,107.780 218.800,108.000 218.800 C 108.220 218.800,108.400 218.185,108.400 217.433 C 108.400 216.682,108.564 216.007,108.763 215.933 C 109.570 215.637,109.422 212.800,108.600 212.800 C 108.183 212.800,108.000 213.220,108.000 214.176 M344.000 216.013 C 344.000 216.693,344.250 217.321,344.570 217.444 C 344.977 217.600,345.075 218.060,344.914 219.054 C 344.728 220.197,344.825 220.481,345.452 220.645 C 346.077 220.809,346.189 221.133,346.066 222.423 C 345.951 223.629,346.058 224.000,346.520 224.000 C 346.990 224.000,347.078 224.342,346.916 225.548 C 346.792 226.473,346.888 227.207,347.154 227.372 C 347.399 227.523,347.600 228.092,347.600 228.636 C 347.600 229.180,347.870 229.729,348.200 229.855 C 348.591 230.005,348.800 230.628,348.800 231.643 C 348.800 232.760,348.969 233.200,349.400 233.200 C 349.817 233.200,350.000 232.781,350.000 231.829 C 350.000 231.074,349.730 230.187,349.400 229.857 C 349.070 229.527,348.800 228.895,348.800 228.452 C 348.800 228.009,348.620 227.536,348.400 227.400 C 348.180 227.264,348.000 226.443,348.000 225.576 C 348.000 224.709,347.839 224.000,347.642 224.000 C 347.445 224.000,347.182 223.325,347.057 222.500 C 346.486 218.720,346.269 217.925,345.753 217.726 C 345.433 217.604,345.200 216.943,345.200 216.157 C 345.200 215.217,345.015 214.800,344.600 214.800 C 344.199 214.800,344.000 215.201,344.000 216.013 M104.667 224.267 C 104.114 224.820,104.384 227.200,105.000 227.200 C 105.433 227.200,105.600 226.756,105.600 225.600 C 105.600 224.099,105.285 223.648,104.667 224.267 M103.600 229.324 C 103.600 230.546,103.410 231.187,103.000 231.345 C 102.623 231.489,102.400 232.102,102.400 232.994 C 102.400 234.608,101.557 237.600,101.103 237.600 C 100.936 237.600,100.800 238.584,100.800 239.787 C 100.800 241.635,100.900 241.936,101.445 241.727 C 101.954 241.532,102.051 241.071,101.904 239.540 C 101.757 238.015,101.843 237.600,102.305 237.600 C 102.719 237.600,102.836 237.299,102.699 236.586 C 102.560 235.857,102.727 235.453,103.293 235.150 C 103.959 234.794,104.041 234.465,103.823 233.014 C 103.618 231.649,103.697 231.248,104.207 231.053 C 104.670 230.875,104.814 230.397,104.724 229.334 C 104.537 227.120,103.600 227.111,103.600 229.324 M349.867 234.267 C 349.398 234.736,349.581 237.127,350.100 237.301 C 350.416 237.408,350.600 238.251,350.600 239.597 C 350.600 240.940,350.784 241.787,351.100 241.895 C 351.461 242.019,351.600 241.445,351.600 239.833 C 351.600 238.605,351.420 237.600,351.200 237.600 C 350.980 237.600,350.800 236.790,350.800 235.800 C 350.800 234.120,350.502 233.631,349.867 234.267 M99.834 243.100 C 99.369 244.577,99.699 246.840,100.361 246.712 C 101.132 246.564,101.356 245.559,101.019 243.760 C 100.743 242.289,100.186 241.979,99.834 243.100 M351.431 244.131 C 351.145 246.041,351.454 247.314,352.149 247.086 C 353.022 246.800,352.917 242.400,352.038 242.400 C 351.847 242.400,351.574 243.179,351.431 244.131 M98.800 250.400 C 98.800 252.217,98.939 252.800,99.373 252.800 C 100.003 252.800,100.284 251.358,100.056 249.300 C 99.787 246.864,98.800 247.728,98.800 250.400 M352.400 249.200 C 352.400 249.893,352.611 250.400,352.900 250.400 C 353.250 250.400,353.400 251.199,353.400 253.063 C 353.400 254.835,353.567 255.782,353.900 255.896 C 354.520 256.108,354.617 250.981,354.000 250.600 C 353.780 250.464,353.600 249.823,353.600 249.176 C 353.600 248.397,353.397 248.000,353.000 248.000 C 352.600 248.000,352.400 248.400,352.400 249.200 M98.273 253.461 C 97.677 254.056,97.971 259.200,98.600 259.200 C 99.070 259.200,99.199 258.658,99.194 256.700 C 99.188 254.245,98.812 252.922,98.273 253.461 M354.252 258.100 C 353.618 260.465,354.069 263.600,355.043 263.600 C 355.627 263.600,355.869 259.165,355.357 257.833 C 355.012 256.934,354.534 257.050,354.252 258.100 M97.200 262.033 C 97.200 263.481,97.344 264.019,97.700 263.902 C 98.302 263.704,98.556 262.278,98.226 260.959 C 97.806 259.288,97.200 259.922,97.200 262.033 M355.257 265.686 C 355.203 266.597,355.065 267.495,354.949 267.683 C 354.503 268.405,355.283 273.200,355.847 273.200 C 356.620 273.200,356.649 265.104,355.877 264.464 C 355.463 264.121,355.334 264.375,355.257 265.686 M96.267 264.667 C 95.692 265.242,95.969 272.800,96.565 272.800 C 97.351 272.800,97.745 270.080,97.410 266.959 C 97.152 264.550,96.896 264.037,96.267 264.667 M95.223 295.954 C 95.221 314.588,95.440 319.072,96.196 315.916 C 96.676 313.917,96.218 275.873,95.712 275.704 C 95.333 275.578,95.224 280.080,95.223 295.954 M356.252 276.500 C 355.937 277.675,355.937 314.325,356.252 315.500 C 357.014 318.343,357.200 314.514,357.200 296.000 C 357.200 277.486,357.014 273.657,356.252 276.500 M96.086 323.067 C 96.219 328.052,96.940 329.154,97.380 325.046 C 97.727 321.811,97.322 318.800,96.541 318.800 C 96.079 318.800,95.994 319.594,96.086 323.067 M355.073 320.900 C 354.813 323.394,355.235 326.831,355.800 326.815 C 356.486 326.796,356.546 318.800,355.860 318.800 C 355.469 318.800,355.224 319.456,355.073 320.900 M97.200 329.743 C 97.200 331.752,97.840 332.576,98.221 331.057 C 98.556 329.724,98.305 328.297,97.700 328.098 C 97.349 327.983,97.200 328.474,97.200 329.743 M354.243 329.033 C 353.941 329.820,354.006 332.604,354.364 334.200 C 354.811 336.194,355.600 334.168,355.600 331.026 C 355.600 328.433,354.879 327.375,354.243 329.033 M98.037 335.400 C 98.155 339.854,99.200 339.285,99.200 334.767 C 99.200 332.894,99.070 332.400,98.579 332.400 C 98.066 332.400,97.972 332.921,98.037 335.400 M353.338 336.617 C 353.208 336.956,353.186 338.117,353.290 339.197 C 353.426 340.613,353.328 341.219,352.939 341.368 C 352.164 341.665,352.219 344.400,353.000 344.400 C 353.417 344.400,353.600 343.980,353.600 343.024 C 353.600 342.267,353.780 341.536,354.000 341.400 C 354.535 341.069,354.523 336.000,353.987 336.000 C 353.761 336.000,353.468 336.278,353.338 336.617 M98.881 341.668 C 99.014 344.425,99.808 345.292,100.079 342.976 C 100.326 340.855,100.001 339.200,99.336 339.200 C 98.886 339.200,98.788 339.736,98.881 341.668 M99.658 346.731 C 99.740 350.374,100.956 350.706,100.984 347.094 C 100.997 345.440,100.860 344.994,100.307 344.883 C 99.719 344.765,99.620 345.046,99.658 346.731 M351.389 345.635 C 351.243 346.094,351.240 347.088,351.382 347.844 C 351.570 348.849,351.461 349.396,350.976 349.881 C 350.485 350.372,350.364 351.001,350.510 352.303 C 350.657 353.606,350.558 354.118,350.127 354.283 C 349.711 354.443,349.575 355.044,349.647 356.408 C 349.720 357.771,349.554 358.503,349.063 358.994 C 348.559 359.498,348.446 360.037,348.634 361.039 C 348.838 362.130,348.761 362.400,348.245 362.400 C 347.824 362.400,347.600 362.747,347.600 363.400 C 347.600 363.950,347.406 364.400,347.169 364.400 C 346.911 364.400,346.787 365.070,346.859 366.070 C 346.936 367.126,346.800 367.800,346.490 367.903 C 346.202 367.999,346.000 368.795,346.000 369.833 C 346.000 371.191,345.851 371.600,345.355 371.600 C 344.840 371.600,344.762 371.870,344.965 372.954 C 345.155 373.965,345.065 374.366,344.609 374.541 C 344.249 374.679,344.000 375.270,344.000 375.987 C 344.000 376.654,343.820 377.200,343.600 377.200 C 343.380 377.200,343.200 377.483,343.200 377.829 C 343.200 378.174,342.917 378.740,342.571 379.086 C 342.190 379.467,342.031 380.070,342.168 380.616 C 342.321 381.226,342.186 381.596,341.748 381.764 C 341.268 381.949,341.165 382.323,341.344 383.221 C 341.517 384.087,341.418 384.495,340.993 384.658 C 340.667 384.783,340.400 385.329,340.400 385.871 C 340.400 386.414,340.138 387.119,339.817 387.440 C 339.496 387.761,339.337 388.292,339.463 388.620 C 339.595 388.964,339.241 389.668,338.628 390.281 C 338.027 390.882,337.615 391.692,337.682 392.141 C 337.846 393.247,338.800 393.481,338.800 392.416 C 338.800 391.948,339.250 391.080,339.800 390.487 C 340.350 389.893,340.800 389.012,340.800 388.528 C 340.800 388.043,340.980 387.536,341.200 387.400 C 341.420 387.264,341.600 386.623,341.600 385.976 C 341.600 385.329,341.780 384.800,342.000 384.800 C 342.220 384.800,342.400 384.189,342.400 383.443 C 342.400 382.605,342.630 381.997,343.000 381.855 C 343.351 381.721,343.600 381.121,343.600 380.413 C 343.600 379.746,343.780 379.200,344.000 379.200 C 344.220 379.200,344.400 378.750,344.400 378.200 C 344.400 377.650,344.580 377.200,344.800 377.200 C 345.020 377.200,345.200 376.570,345.200 375.800 C 345.200 375.030,345.372 374.400,345.582 374.400 C 345.792 374.400,346.082 373.768,346.227 372.996 C 346.372 372.223,346.650 371.493,346.845 371.372 C 347.040 371.251,347.200 370.443,347.200 369.576 C 347.200 368.709,347.380 368.000,347.600 368.000 C 347.820 368.000,348.000 367.190,348.000 366.200 C 348.000 365.210,348.180 364.400,348.400 364.400 C 348.620 364.400,348.800 364.062,348.800 363.649 C 348.800 363.236,349.052 362.688,349.361 362.432 C 349.886 361.997,350.073 361.105,350.649 356.300 C 350.775 355.255,351.040 354.400,351.239 354.400 C 351.437 354.400,351.600 353.397,351.600 352.171 C 351.600 350.724,351.810 349.733,352.200 349.343 C 353.013 348.530,353.035 344.800,352.227 344.800 C 351.912 344.800,351.535 345.176,351.389 345.635 M100.800 352.200 C 100.800 353.410,100.980 354.400,101.200 354.400 C 101.420 354.400,101.600 354.865,101.600 355.433 C 101.600 356.081,101.787 356.405,102.100 356.302 C 102.795 356.073,102.981 354.359,102.353 353.971 C 102.022 353.767,101.876 352.993,101.948 351.826 C 102.037 350.383,101.928 350.000,101.430 350.000 C 100.933 350.000,100.800 350.464,100.800 352.200 M102.615 357.175 C 102.226 357.806,102.542 360.020,103.087 360.472 C 103.369 360.706,103.600 361.686,103.600 362.649 C 103.600 363.612,103.780 364.400,104.000 364.400 C 104.220 364.400,104.400 365.210,104.400 366.200 C 104.400 367.190,104.580 368.000,104.800 368.000 C 105.020 368.000,105.200 368.726,105.200 369.613 C 105.200 370.677,105.404 371.303,105.800 371.455 C 106.130 371.582,106.400 372.016,106.400 372.419 C 106.400 372.823,106.580 373.264,106.800 373.400 C 107.020 373.536,107.200 374.267,107.200 375.024 C 107.200 375.781,107.380 376.400,107.600 376.400 C 107.820 376.400,108.000 376.953,108.000 377.629 C 108.000 378.304,108.259 379.116,108.576 379.433 C 108.893 379.750,109.082 380.376,108.995 380.825 C 108.906 381.287,109.090 381.736,109.419 381.863 C 109.769 381.997,110.000 382.625,110.000 383.443 C 110.000 384.189,110.180 384.800,110.400 384.800 C 110.620 384.800,110.800 385.160,110.800 385.600 C 110.800 386.040,110.980 386.400,111.200 386.400 C 111.420 386.400,111.600 386.850,111.600 387.400 C 111.600 388.656,112.618 388.732,112.947 387.500 C 113.098 386.935,112.966 386.434,112.594 386.156 C 112.267 385.912,112.000 385.417,112.000 385.056 C 112.000 384.695,111.820 384.400,111.600 384.400 C 111.380 384.400,111.200 383.860,111.200 383.200 C 111.200 382.540,111.020 382.000,110.800 382.000 C 110.580 382.000,110.400 381.482,110.400 380.849 C 110.400 380.216,110.117 379.463,109.772 379.177 C 109.427 378.890,109.228 378.337,109.330 377.947 C 109.432 377.556,109.270 376.914,108.970 376.519 C 108.671 376.123,108.420 375.215,108.413 374.500 C 108.404 373.656,108.203 373.200,107.837 373.200 C 107.473 373.200,107.348 372.920,107.483 372.405 C 107.617 371.894,107.453 371.518,107.025 371.354 C 106.535 371.166,106.423 370.808,106.600 369.999 C 106.760 369.272,106.631 368.688,106.221 368.278 C 105.869 367.926,105.600 366.971,105.600 366.071 C 105.600 365.115,105.387 364.404,105.064 364.280 C 104.714 364.146,104.592 363.639,104.712 362.821 C 104.833 361.993,104.664 361.313,104.212 360.813 C 103.778 360.333,103.624 359.755,103.791 359.229 C 104.261 357.749,103.299 356.069,102.615 357.175 M112.800 390.000 C 112.800 390.660,112.980 391.200,113.200 391.200 C 113.420 391.200,113.600 391.729,113.600 392.376 C 113.600 393.023,113.780 393.664,114.000 393.800 C 114.220 393.936,114.400 394.397,114.400 394.824 C 114.400 395.251,114.670 395.600,115.000 395.600 C 115.333 395.600,115.600 395.956,115.600 396.400 C 115.600 396.840,115.780 397.200,116.000 397.200 C 116.220 397.200,116.400 397.740,116.400 398.400 C 116.400 399.060,116.580 399.600,116.800 399.600 C 117.020 399.600,117.200 399.945,117.200 400.367 C 117.200 400.788,117.369 401.193,117.576 401.267 C 117.784 401.340,118.045 401.911,118.156 402.536 C 118.268 403.160,118.729 403.991,119.180 404.383 C 119.631 404.774,120.000 405.377,120.000 405.723 C 120.000 406.070,120.180 406.464,120.400 406.600 C 120.620 406.736,120.800 407.202,120.800 407.636 C 120.800 408.070,121.070 408.529,121.400 408.655 C 121.730 408.782,122.000 409.226,122.000 409.643 C 122.000 410.059,122.180 410.400,122.400 410.400 C 122.620 410.400,122.800 410.773,122.800 411.229 C 122.800 412.114,123.666 413.200,124.371 413.200 C 124.607 413.200,124.800 413.650,124.800 414.200 C 124.800 414.750,124.936 415.200,125.102 415.200 C 125.269 415.200,125.644 415.785,125.936 416.500 C 126.946 418.972,127.337 419.600,127.868 419.600 C 128.160 419.600,128.400 420.010,128.400 420.512 C 128.400 421.013,128.760 421.683,129.200 422.000 C 129.640 422.317,130.000 422.903,130.000 423.301 C 130.000 423.699,130.270 424.129,130.600 424.255 C 130.930 424.382,131.200 424.826,131.200 425.243 C 131.200 425.659,131.380 426.000,131.600 426.000 C 131.820 426.000,132.000 426.193,132.000 426.429 C 132.000 426.895,132.985 428.000,133.400 428.000 C 133.957 428.000,134.800 429.187,134.800 429.971 C 134.800 430.427,134.950 430.800,135.132 430.800 C 135.315 430.800,135.715 431.295,136.020 431.900 C 136.326 432.505,137.133 433.540,137.814 434.200 C 138.496 434.860,139.170 435.715,139.314 436.100 C 139.457 436.485,139.761 436.800,139.987 436.800 C 140.214 436.800,140.400 437.030,140.400 437.312 C 140.400 437.593,140.760 438.083,141.200 438.400 C 141.640 438.717,142.000 439.207,142.000 439.488 C 142.000 439.770,142.135 440.000,142.300 440.000 C 142.860 440.001,144.800 441.890,144.813 442.447 C 144.827 443.068,145.744 444.400,146.158 444.400 C 146.616 444.400,148.734 446.733,148.494 446.973 C 148.369 447.098,148.490 447.200,148.762 447.200 C 149.280 447.200,150.400 448.157,150.400 448.600 C 150.400 448.972,151.484 450.000,151.876 450.000 C 152.060 450.000,152.557 450.461,152.980 451.025 C 154.358 452.860,155.086 453.600,155.514 453.600 C 155.744 453.600,155.993 453.766,156.067 453.970 C 156.140 454.173,156.449 454.398,156.754 454.470 C 157.485 454.641,160.400 457.451,160.400 457.984 C 160.400 458.213,160.670 458.400,161.000 458.400 C 161.330 458.400,161.600 458.580,161.600 458.800 C 161.600 459.020,161.894 459.200,162.254 459.200 C 162.614 459.200,163.301 459.605,163.780 460.100 C 164.703 461.053,165.628 461.713,167.100 462.467 C 167.595 462.721,168.000 463.105,168.000 463.320 C 168.000 463.881,169.276 464.772,170.100 464.787 C 170.485 464.794,170.800 464.980,170.800 465.200 C 170.800 465.420,171.068 465.600,171.395 465.600 C 172.163 465.600,173.621 466.843,173.356 467.271 C 173.244 467.452,173.531 467.600,173.993 467.600 C 174.455 467.600,175.220 467.960,175.692 468.400 C 176.164 468.840,176.858 469.200,177.233 469.200 C 177.608 469.200,178.008 469.444,178.123 469.743 C 178.237 470.042,178.865 470.393,179.517 470.523 C 180.170 470.654,180.982 471.040,181.323 471.380 C 181.664 471.721,182.136 472.000,182.371 472.000 C 182.607 472.000,182.800 472.168,182.800 472.373 C 182.800 472.578,183.205 472.860,183.700 472.998 C 184.666 473.269,186.172 473.876,187.295 474.447 C 187.677 474.641,188.442 474.800,188.995 474.800 C 189.548 474.800,190.000 474.980,190.000 475.200 C 190.000 475.420,190.366 475.600,190.813 475.600 C 191.259 475.600,191.729 475.870,191.855 476.200 C 192.119 476.887,193.822 477.012,194.216 476.373 C 194.546 475.841,194.236 475.514,193.313 475.419 C 192.152 475.299,190.400 474.452,190.400 474.010 C 190.400 473.784,189.871 473.600,189.224 473.600 C 188.577 473.600,187.936 473.420,187.800 473.200 C 187.664 472.980,187.198 472.800,186.764 472.800 C 186.330 472.800,185.871 472.530,185.745 472.200 C 185.613 471.858,185.017 471.600,184.357 471.600 C 183.721 471.600,183.200 471.420,183.200 471.200 C 183.200 470.980,182.930 470.800,182.600 470.800 C 182.270 470.800,182.000 470.620,182.000 470.400 C 182.000 470.180,181.807 470.000,181.571 470.000 C 181.336 470.000,180.863 469.720,180.520 469.377 C 180.177 469.034,179.643 468.851,179.333 468.970 C 179.023 469.089,178.667 468.920,178.542 468.593 C 178.417 468.267,177.974 468.000,177.557 468.000 C 177.141 468.000,176.800 467.820,176.800 467.600 C 176.800 467.380,176.522 467.200,176.183 467.200 C 175.554 467.200,175.099 466.890,173.399 465.300 C 172.870 464.805,172.158 464.400,171.818 464.400 C 171.478 464.400,171.200 464.220,171.200 464.000 C 171.200 463.780,170.917 463.600,170.571 463.600 C 170.226 463.600,169.711 463.375,169.428 463.100 C 167.773 461.495,165.979 460.000,165.707 460.000 C 165.533 460.000,164.907 459.550,164.313 459.000 C 163.720 458.450,163.057 458.000,162.840 458.000 C 162.623 458.000,161.352 456.927,160.016 455.615 C 158.482 454.110,157.367 453.314,156.993 453.458 C 156.631 453.597,156.400 453.451,156.400 453.086 C 156.400 452.756,156.130 452.382,155.800 452.255 C 155.470 452.129,155.198 451.794,155.196 451.513 C 155.194 451.231,154.609 450.550,153.896 450.000 C 152.251 448.731,150.869 447.349,149.600 445.704 C 149.050 444.991,148.445 444.406,148.256 444.404 C 147.705 444.398,146.014 442.649,146.007 442.077 C 146.003 441.789,145.234 440.798,144.297 439.875 C 143.360 438.951,142.156 437.567,141.620 436.798 C 141.085 436.029,140.222 434.950,139.703 434.400 C 138.282 432.895,136.000 429.705,136.000 429.224 C 136.000 428.991,135.820 428.800,135.600 428.800 C 135.380 428.800,135.200 428.608,135.200 428.373 C 135.200 428.138,134.570 427.352,133.800 426.626 C 133.030 425.900,132.400 425.129,132.400 424.914 C 132.400 424.226,131.155 422.000,130.771 422.000 C 130.567 422.000,130.400 421.730,130.400 421.400 C 130.400 421.070,130.220 420.800,130.000 420.800 C 129.780 420.800,129.600 420.530,129.600 420.200 C 129.600 419.870,129.420 419.600,129.200 419.600 C 128.980 419.600,128.800 419.324,128.800 418.987 C 128.800 418.651,128.530 418.271,128.200 418.145 C 127.870 418.018,127.600 417.574,127.600 417.157 C 127.600 416.741,127.420 416.400,127.200 416.400 C 126.980 416.400,126.800 416.158,126.800 415.861 C 126.800 414.954,125.563 412.784,124.760 412.282 C 124.342 412.021,124.000 411.401,124.000 410.904 C 124.000 410.407,123.820 410.000,123.600 410.000 C 123.380 410.000,123.200 409.659,123.200 409.243 C 123.200 408.826,122.911 408.375,122.558 408.239 C 122.206 408.104,122.015 407.738,122.135 407.426 C 122.254 407.114,122.093 406.643,121.776 406.380 C 121.459 406.117,121.200 405.607,121.200 405.246 C 121.200 404.885,120.776 404.271,120.258 403.882 C 119.582 403.375,119.369 402.897,119.504 402.192 C 119.630 401.532,119.480 401.129,119.046 400.962 C 118.691 400.826,118.400 400.374,118.400 399.957 C 118.400 399.541,118.220 399.200,118.000 399.200 C 117.780 399.200,117.600 398.660,117.600 398.000 C 117.600 397.340,117.420 396.800,117.200 396.800 C 116.980 396.800,116.800 396.524,116.800 396.187 C 116.800 395.851,116.520 395.467,116.177 395.336 C 115.832 395.203,115.654 394.836,115.779 394.511 C 115.915 394.157,115.716 393.851,115.275 393.736 C 114.733 393.594,114.589 393.258,114.712 392.420 C 114.803 391.801,114.680 391.173,114.438 391.024 C 114.197 390.875,114.000 390.313,114.000 389.776 C 114.000 389.175,113.769 388.800,113.400 388.800 C 113.000 388.800,112.800 389.200,112.800 390.000 M336.800 394.214 C 336.800 394.552,336.503 395.281,336.141 395.835 C 335.675 396.544,335.606 396.966,335.906 397.266 C 336.464 397.824,337.316 397.280,337.034 396.544 C 336.913 396.228,337.080 395.867,337.407 395.742 C 338.196 395.439,338.190 393.600,337.400 393.600 C 337.070 393.600,336.800 393.876,336.800 394.214 M334.832 398.900 C 334.641 399.395,334.095 400.245,333.619 400.788 C 333.133 401.343,332.837 402.100,332.945 402.513 C 333.057 402.940,332.885 403.346,332.537 403.480 C 332.195 403.611,332.017 404.020,332.124 404.429 C 332.227 404.825,332.061 405.244,331.756 405.362 C 331.450 405.479,331.200 405.941,331.200 406.387 C 331.200 406.834,331.020 407.200,330.800 407.200 C 330.580 407.200,330.400 407.547,330.400 407.971 C 330.400 408.395,329.950 409.096,329.400 409.529 C 328.850 409.961,328.400 410.694,328.400 411.158 C 328.400 411.621,328.220 412.000,328.000 412.000 C 327.780 412.000,327.600 412.341,327.600 412.757 C 327.600 413.174,327.333 413.617,327.007 413.742 C 326.646 413.880,326.513 414.230,326.669 414.634 C 326.825 415.042,326.668 415.442,326.262 415.669 C 325.898 415.873,325.600 416.268,325.600 416.548 C 325.600 416.827,325.175 417.425,324.656 417.876 C 324.137 418.327,323.463 419.260,323.159 419.948 C 322.854 420.637,322.469 421.200,322.302 421.200 C 322.136 421.200,322.000 421.495,322.000 421.856 C 322.000 422.217,321.703 422.729,321.339 422.995 C 320.975 423.261,320.806 423.686,320.962 423.939 C 321.374 424.605,322.400 424.506,322.400 423.800 C 322.400 423.470,322.580 423.200,322.800 423.200 C 323.020 423.200,323.200 422.840,323.200 422.400 C 323.200 421.960,323.380 421.600,323.600 421.600 C 323.820 421.600,324.000 421.150,324.000 420.600 C 324.000 420.050,324.204 419.600,324.453 419.600 C 325.115 419.600,326.799 417.518,326.800 416.700 C 326.800 416.315,326.977 416.000,327.192 416.000 C 327.408 416.000,327.698 415.550,327.836 415.000 C 327.974 414.450,328.247 414.000,328.443 414.000 C 328.640 414.000,328.800 413.651,328.800 413.224 C 328.800 412.797,328.980 412.336,329.200 412.200 C 329.420 412.064,329.600 411.646,329.600 411.271 C 329.600 410.897,330.050 410.252,330.600 409.839 C 331.150 409.426,331.600 408.753,331.600 408.344 C 331.600 407.935,331.780 407.600,332.000 407.600 C 332.220 407.600,332.400 407.251,332.400 406.824 C 332.400 406.397,332.580 405.936,332.800 405.800 C 333.020 405.664,333.200 405.203,333.200 404.776 C 333.200 404.349,333.366 404.000,333.568 404.000 C 333.771 404.000,334.065 403.415,334.222 402.700 C 334.379 401.986,334.843 401.109,335.254 400.753 C 336.039 400.072,336.292 398.000,335.590 398.000 C 335.365 398.000,335.024 398.405,334.832 398.900 M319.914 425.300 C 319.562 425.575,318.648 426.790,317.881 428.000 C 317.115 429.210,316.044 430.582,315.501 431.048 C 314.957 431.515,314.263 432.460,313.959 433.148 C 313.654 433.837,313.269 434.400,313.102 434.400 C 312.936 434.400,312.800 434.573,312.800 434.785 C 312.800 434.996,312.125 435.851,311.300 436.685 C 310.475 437.518,309.440 438.717,309.000 439.349 C 308.560 439.981,307.910 440.791,307.555 441.149 C 307.200 441.507,306.840 441.980,306.755 442.200 C 306.427 443.048,293.558 455.200,292.989 455.200 C 292.878 455.200,292.010 456.010,291.062 457.000 C 290.113 457.990,289.099 458.800,288.809 458.800 C 288.518 458.800,287.651 459.449,286.881 460.241 C 285.406 461.760,284.089 462.647,281.307 463.994 C 280.375 464.445,279.064 465.351,278.393 466.007 C 277.722 466.663,276.928 467.200,276.629 467.200 C 276.330 467.200,275.983 467.467,275.858 467.793 C 275.720 468.154,275.370 468.287,274.966 468.131 C 274.556 467.974,274.157 468.134,273.926 468.547 C 273.720 468.915,273.390 469.118,273.194 468.996 C 272.750 468.722,271.200 470.008,271.200 470.651 C 271.200 470.927,270.868 471.038,270.405 470.917 C 269.910 470.788,269.520 470.943,269.372 471.329 C 269.241 471.670,268.902 471.860,268.618 471.752 C 268.335 471.643,267.823 471.834,267.480 472.177 C 267.137 472.520,266.394 472.800,265.829 472.800 C 265.211 472.800,264.800 473.025,264.800 473.363 C 264.800 473.709,264.521 473.852,264.073 473.735 C 263.673 473.630,262.476 474.007,261.413 474.572 C 260.351 475.138,259.238 475.600,258.940 475.600 C 258.643 475.600,258.400 475.769,258.400 475.976 C 258.400 476.183,257.739 476.408,256.931 476.476 C 254.691 476.665,254.721 477.600,256.967 477.600 C 257.975 477.600,258.800 477.420,258.800 477.200 C 258.800 476.980,259.138 476.800,259.551 476.800 C 259.964 476.800,260.526 476.530,260.800 476.200 C 261.074 475.870,261.546 475.600,261.849 475.600 C 262.152 475.600,262.400 475.420,262.400 475.200 C 262.400 474.980,262.852 474.800,263.405 474.800 C 263.958 474.800,264.723 474.641,265.105 474.447 C 266.228 473.876,267.734 473.269,268.700 472.998 C 269.195 472.860,269.600 472.578,269.600 472.373 C 269.600 472.168,270.050 472.000,270.600 472.000 C 271.150 472.000,271.600 471.841,271.600 471.646 C 271.600 471.451,272.230 470.992,273.000 470.627 C 273.770 470.261,274.400 469.791,274.400 469.581 C 274.400 469.372,274.749 469.200,275.176 469.200 C 275.603 469.200,276.064 469.020,276.200 468.800 C 276.336 468.580,276.797 468.400,277.224 468.400 C 277.651 468.400,278.000 468.220,278.000 468.000 C 278.000 467.780,278.270 467.600,278.600 467.600 C 278.930 467.600,279.200 467.407,279.200 467.171 C 279.200 466.466,280.286 465.600,281.171 465.600 C 281.627 465.600,282.000 465.420,282.000 465.200 C 282.000 464.980,282.360 464.800,282.800 464.800 C 283.240 464.800,283.600 464.632,283.600 464.427 C 283.600 464.222,283.945 463.944,284.367 463.810 C 284.789 463.676,285.972 462.764,286.996 461.783 C 288.020 460.803,289.114 460.000,289.429 460.000 C 289.743 460.000,290.000 459.820,290.000 459.600 C 290.000 459.380,290.193 459.200,290.429 459.200 C 290.895 459.200,292.000 458.215,292.000 457.800 C 292.000 457.350,293.123 456.400,293.671 456.387 C 294.285 456.373,295.600 455.445,295.600 455.027 C 295.600 454.698,296.641 453.600,296.953 453.600 C 297.322 453.600,299.200 451.579,299.200 451.182 C 299.200 450.972,299.335 450.800,299.500 450.800 C 299.907 450.799,302.000 448.978,302.000 448.625 C 302.000 448.278,303.051 447.200,303.390 447.200 C 303.804 447.200,305.600 445.264,305.600 444.818 C 305.600 444.588,305.870 444.400,306.200 444.400 C 306.530 444.400,306.800 444.113,306.800 443.763 C 306.800 443.412,307.160 443.031,307.600 442.916 C 308.040 442.801,308.400 442.529,308.400 442.311 C 308.400 442.093,308.852 441.560,309.404 441.126 C 309.956 440.691,310.317 440.189,310.205 440.009 C 309.983 439.649,312.117 437.203,312.660 437.195 C 312.983 437.190,314.800 434.646,314.800 434.199 C 314.800 434.082,315.430 433.374,316.200 432.626 C 316.970 431.879,317.600 431.001,317.600 430.676 C 317.600 430.351,317.831 429.997,318.114 429.889 C 318.396 429.780,319.054 428.861,319.576 427.846 C 320.099 426.831,320.677 426.000,320.863 426.000 C 321.048 426.000,321.200 425.730,321.200 425.400 C 321.200 424.669,320.764 424.635,319.914 425.300 M194.400 477.000 C 194.400 477.493,194.715 477.620,195.700 477.525 C 196.415 477.456,197.000 477.220,197.000 477.000 C 197.000 476.780,196.415 476.544,195.700 476.475 C 194.715 476.380,194.400 476.507,194.400 477.000 M197.700 477.465 C 196.670 477.880,197.254 478.400,198.751 478.400 C 199.642 478.400,200.514 478.655,200.800 479.000 C 201.104 479.366,201.980 479.600,203.049 479.600 C 204.012 479.600,204.800 479.780,204.800 480.000 C 204.800 480.220,205.430 480.400,206.200 480.400 C 206.970 480.400,207.600 480.580,207.600 480.800 C 207.600 481.026,208.744 481.200,210.233 481.200 C 213.713 481.200,213.667 480.220,210.185 480.158 C 208.812 480.134,207.776 479.927,207.686 479.658 C 207.602 479.406,206.995 479.200,206.338 479.200 C 205.681 479.200,204.857 478.914,204.507 478.564 C 204.026 478.084,203.448 477.992,202.136 478.189 C 200.718 478.401,200.400 478.335,200.400 477.825 C 200.400 477.208,198.849 477.001,197.700 477.465 M252.000 477.776 C 252.000 478.239,252.420 478.400,253.633 478.400 C 255.717 478.400,255.579 477.454,253.469 477.276 C 252.352 477.181,252.000 477.301,252.000 477.776 M248.449 478.361 C 247.575 478.915,248.322 479.600,249.800 479.600 C 250.544 479.600,251.276 479.400,251.428 479.155 C 251.760 478.617,250.898 478.012,249.800 478.012 C 249.360 478.012,248.752 478.169,248.449 478.361 M245.600 479.800 C 245.600 480.173,245.978 480.400,246.600 480.400 C 247.222 480.400,247.600 480.173,247.600 479.800 C 247.600 479.427,247.222 479.200,246.600 479.200 C 245.978 479.200,245.600 479.427,245.600 479.800 M240.255 480.600 C 240.045 481.149,240.359 481.221,242.505 481.119 C 245.548 480.974,245.653 480.246,242.654 480.082 C 240.977 479.989,240.446 480.104,240.255 480.600 M214.300 481.127 C 213.695 481.196,213.200 481.407,213.200 481.595 C 213.200 482.533,238.326 482.634,239.260 481.700 C 239.660 481.300,239.524 481.190,238.580 481.152 C 235.671 481.035,215.287 481.013,214.300 481.127 " stroke="none" fill="#fce8ad" fill-rule="evenodd"></path><path id="path3" d="M164.000 59.760 C 164.000 60.093,163.524 60.419,162.900 60.513 C 162.295 60.605,166.030 60.678,171.200 60.676 C 176.370 60.674,180.025 60.600,179.322 60.512 C 178.446 60.403,178.109 60.181,178.252 59.808 C 178.423 59.363,177.150 59.256,171.230 59.219 C 165.121 59.180,164.000 59.264,164.000 59.760 M158.579 60.766 C 158.703 60.967,158.579 61.223,158.302 61.334 C 158.026 61.446,158.295 61.551,158.900 61.568 C 159.625 61.589,160.000 61.396,160.000 61.000 C 160.000 60.661,159.642 60.400,159.176 60.400 C 158.723 60.400,158.455 60.565,158.579 60.766 M182.098 60.900 C 182.188 61.175,182.770 61.460,183.392 61.532 C 184.422 61.653,184.466 61.609,183.890 61.032 C 183.138 60.281,181.863 60.187,182.098 60.900 M154.320 61.639 C 154.239 61.883,153.283 62.071,152.173 62.063 C 150.453 62.049,150.171 62.156,150.171 62.824 C 150.171 63.758,151.285 63.858,152.143 63.000 C 152.518 62.624,153.502 62.400,154.771 62.400 C 156.308 62.400,156.800 62.254,156.800 61.800 C 156.800 61.093,154.551 60.947,154.320 61.639 M185.698 61.700 C 185.796 61.998,186.656 62.224,187.831 62.259 C 188.914 62.291,189.395 62.233,188.900 62.131 C 188.405 62.028,188.000 61.777,188.000 61.572 C 188.000 61.367,187.445 61.200,186.767 61.200 C 185.959 61.200,185.590 61.373,185.698 61.700 M190.172 62.445 C 189.882 62.914,190.656 63.584,191.500 63.594 C 191.775 63.597,192.000 63.240,192.000 62.800 C 192.000 61.925,190.655 61.664,190.172 62.445 M193.200 62.639 C 193.200 63.458,194.179 64.400,195.030 64.400 C 195.995 64.400,196.005 64.373,195.316 63.664 C 194.592 62.920,193.200 62.245,193.200 62.639 M146.693 63.600 C 146.031 64.373,146.046 64.400,147.155 64.400 C 148.305 64.400,149.424 63.557,148.930 63.063 C 148.422 62.555,147.371 62.808,146.693 63.600 M144.000 64.400 C 144.000 64.620,143.505 64.806,142.900 64.813 C 141.699 64.827,140.400 65.622,140.400 66.344 C 140.400 66.595,139.950 66.800,139.400 66.800 C 138.850 66.800,138.400 66.980,138.400 67.200 C 138.400 67.420,138.068 67.600,137.661 67.600 C 137.255 67.600,136.373 67.874,135.700 68.210 C 134.339 68.889,133.671 70.000,134.625 70.000 C 134.955 70.000,135.333 69.720,135.464 69.377 C 135.596 69.034,135.957 68.851,136.267 68.970 C 136.577 69.089,136.933 68.920,137.058 68.593 C 137.187 68.258,137.789 68.000,138.443 68.000 C 139.079 68.000,139.600 67.820,139.600 67.600 C 139.600 67.380,139.938 67.200,140.351 67.200 C 140.764 67.200,141.326 66.930,141.600 66.600 C 141.874 66.270,142.346 66.000,142.649 66.000 C 142.952 66.000,143.200 65.820,143.200 65.600 C 143.200 65.380,143.740 65.200,144.400 65.200 C 145.200 65.200,145.600 65.000,145.600 64.600 C 145.600 64.267,145.244 64.000,144.800 64.000 C 144.360 64.000,144.000 64.180,144.000 64.400 M196.655 64.600 C 196.782 64.930,197.324 65.200,197.860 65.200 C 198.396 65.200,199.320 65.650,199.913 66.200 C 200.507 66.750,201.354 67.197,201.796 67.194 C 202.464 67.189,202.498 67.121,202.000 66.794 C 201.467 66.444,201.467 66.356,202.000 66.006 C 202.459 65.705,202.294 65.611,201.300 65.606 C 200.585 65.603,200.000 65.420,200.000 65.200 C 200.000 64.980,199.550 64.800,199.000 64.800 C 198.450 64.800,198.000 64.620,198.000 64.400 C 198.000 64.180,197.646 64.000,197.213 64.000 C 196.677 64.000,196.499 64.192,196.655 64.600 M203.055 67.400 C 203.182 67.730,203.616 68.000,204.019 68.000 C 204.423 68.000,204.864 68.180,205.000 68.400 C 205.136 68.620,205.602 68.800,206.036 68.800 C 206.470 68.800,206.929 69.070,207.055 69.400 C 207.182 69.730,207.587 70.000,207.954 70.000 C 208.322 70.000,208.883 70.360,209.200 70.800 C 209.517 71.240,210.006 71.600,210.287 71.600 C 210.568 71.600,211.675 72.230,212.747 73.000 C 213.819 73.770,214.855 74.400,215.050 74.400 C 215.244 74.400,216.303 75.283,217.402 76.362 C 218.501 77.441,219.528 78.244,219.685 78.147 C 220.003 77.951,221.600 79.422,221.600 79.911 C 221.600 80.244,222.038 80.643,224.701 82.734 C 225.636 83.467,226.400 84.286,226.400 84.553 C 226.400 84.820,227.033 85.660,227.806 86.419 C 229.077 87.667,232.800 92.584,232.800 93.015 C 232.800 93.203,233.818 94.505,234.800 95.572 C 235.391 96.215,235.719 96.833,236.933 99.600 C 237.271 100.370,237.919 101.397,238.374 101.883 C 238.828 102.369,239.200 103.047,239.200 103.389 C 239.200 103.731,239.367 104.323,239.571 104.705 C 239.775 105.087,240.039 105.715,240.158 106.100 C 240.458 107.068,241.200 106.980,241.200 105.976 C 241.200 105.523,241.020 105.264,240.800 105.400 C 240.573 105.540,240.400 105.204,240.400 104.624 C 240.400 104.061,240.220 103.600,240.000 103.600 C 239.780 103.600,239.600 103.150,239.600 102.600 C 239.600 102.050,239.420 101.600,239.200 101.600 C 238.980 101.600,238.800 101.240,238.800 100.800 C 238.800 100.332,238.533 100.000,238.157 100.000 C 237.756 100.000,237.599 99.779,237.740 99.412 C 237.864 99.088,237.704 98.561,237.383 98.240 C 237.062 97.919,236.800 97.385,236.800 97.052 C 236.800 96.719,236.620 96.336,236.400 96.200 C 236.180 96.064,236.000 95.603,236.000 95.176 C 236.000 94.749,235.760 94.400,235.468 94.400 C 235.175 94.400,234.694 93.950,234.400 93.400 C 234.106 92.850,233.715 92.400,233.532 92.400 C 233.350 92.400,233.200 92.065,233.200 91.656 C 233.200 91.247,232.750 90.574,232.200 90.161 C 231.650 89.748,231.200 89.152,231.200 88.836 C 231.200 88.521,230.191 87.293,228.957 86.108 C 227.723 84.922,226.822 83.845,226.954 83.713 C 227.299 83.367,226.403 82.400,225.738 82.400 C 224.933 82.400,222.754 80.091,223.335 79.853 C 223.591 79.749,223.472 79.649,223.071 79.632 C 222.260 79.596,221.200 78.689,221.200 78.029 C 221.200 77.793,220.930 77.600,220.600 77.600 C 220.270 77.600,220.000 77.420,220.000 77.200 C 220.000 76.980,219.717 76.800,219.371 76.800 C 218.653 76.800,217.600 75.866,217.600 75.229 C 217.600 74.993,217.394 74.800,217.143 74.800 C 216.892 74.800,216.172 74.262,215.543 73.604 C 214.914 72.946,214.400 72.586,214.400 72.804 C 214.400 73.022,214.220 73.200,214.000 73.200 C 213.780 73.200,213.600 73.007,213.600 72.771 C 213.600 72.132,212.546 71.200,211.823 71.200 C 210.663 71.200,207.897 69.290,208.244 68.729 C 208.356 68.548,207.987 68.400,207.424 68.400 C 206.861 68.400,206.400 68.220,206.400 68.000 C 206.400 67.780,205.950 67.600,205.400 67.600 C 204.850 67.600,204.400 67.420,204.400 67.200 C 204.400 66.980,204.046 66.800,203.613 66.800 C 203.077 66.800,202.899 66.992,203.055 67.400 M132.800 70.000 C 132.800 70.220,132.440 70.400,132.000 70.400 C 131.560 70.400,131.200 70.580,131.200 70.800 C 131.200 71.020,130.795 71.203,130.300 71.206 C 129.643 71.211,129.546 71.305,129.943 71.556 C 130.644 72.000,129.904 72.492,129.036 72.159 C 128.617 71.998,128.400 72.134,128.400 72.557 C 128.400 72.938,128.067 73.200,127.582 73.200 C 126.621 73.200,124.800 74.890,124.800 75.782 C 124.800 76.733,125.435 76.524,126.881 75.100 C 127.606 74.385,128.830 73.459,129.600 73.043 C 132.570 71.436,134.490 69.600,133.200 69.600 C 132.980 69.600,132.800 69.780,132.800 70.000 M123.600 76.400 C 123.600 76.620,123.317 76.800,122.971 76.800 C 122.257 76.800,118.400 80.542,118.400 81.234 C 118.400 81.482,118.130 81.582,117.800 81.455 C 117.470 81.329,117.200 81.408,117.200 81.631 C 117.200 82.164,115.354 84.000,114.818 84.000 C 114.588 84.000,114.400 84.230,114.400 84.512 C 114.400 84.793,114.040 85.283,113.600 85.600 C 113.160 85.917,112.800 86.587,112.800 87.088 C 112.800 87.632,112.558 88.000,112.200 88.000 C 111.870 88.000,111.600 88.180,111.600 88.400 C 111.600 88.620,111.319 88.800,110.976 88.800 C 110.633 88.800,110.464 88.980,110.600 89.200 C 110.736 89.420,110.657 89.600,110.424 89.600 C 110.191 89.600,110.000 89.881,110.000 90.224 C 110.000 90.567,109.820 90.736,109.600 90.600 C 109.211 90.360,109.038 90.883,109.170 91.900 C 109.206 92.175,108.957 92.400,108.618 92.400 C 108.262 92.400,108.000 92.747,108.000 93.218 C 108.000 94.069,106.347 96.000,105.618 96.000 C 105.388 96.000,105.200 96.521,105.200 97.157 C 105.200 97.811,104.942 98.413,104.607 98.542 C 104.269 98.672,104.115 99.035,104.250 99.385 C 104.379 99.723,104.286 100.000,104.043 100.000 C 103.799 100.000,103.600 100.469,103.600 101.043 C 103.600 101.805,103.439 102.024,103.000 101.855 C 102.567 101.689,102.400 101.899,102.400 102.613 C 102.400 103.156,102.220 103.600,102.000 103.600 C 101.780 103.600,101.600 104.061,101.600 104.624 C 101.600 105.204,101.427 105.540,101.200 105.400 C 100.980 105.264,100.800 105.523,100.800 105.976 C 100.800 106.442,101.061 106.800,101.400 106.800 C 101.730 106.800,102.000 106.449,102.000 106.021 C 102.000 105.592,102.450 104.756,103.000 104.162 C 103.550 103.569,104.000 102.659,104.000 102.142 C 104.000 101.624,104.180 101.200,104.400 101.200 C 104.620 101.200,104.800 100.840,104.800 100.400 C 104.800 99.960,104.980 99.600,105.200 99.600 C 105.420 99.600,105.600 99.240,105.600 98.800 C 105.600 98.360,105.915 97.667,106.300 97.260 C 107.360 96.140,108.121 95.097,108.964 93.608 C 109.705 92.301,110.465 91.275,111.500 90.184 C 111.775 89.894,112.000 89.474,112.000 89.251 C 112.000 89.027,112.900 87.958,114.000 86.876 C 115.100 85.793,116.000 84.613,116.000 84.253 C 116.000 83.867,116.326 83.600,116.800 83.600 C 117.244 83.600,117.600 83.333,117.600 83.000 C 117.600 82.670,117.746 82.400,117.925 82.400 C 118.394 82.400,124.400 76.804,124.400 76.367 C 124.400 76.165,124.220 76.000,124.000 76.000 C 123.780 76.000,123.600 76.180,123.600 76.400 M242.000 107.576 C 242.000 107.865,241.740 107.986,241.400 107.855 C 240.990 107.698,240.800 107.878,240.800 108.425 C 240.800 108.865,241.070 109.329,241.400 109.455 C 241.738 109.585,242.000 110.181,242.000 110.819 C 242.000 111.443,242.178 112.063,242.396 112.198 C 242.651 112.355,242.703 111.546,242.540 109.921 C 242.312 107.643,242.000 106.287,242.000 107.576 M100.300 108.172 C 99.915 108.456,99.600 108.893,99.600 109.144 C 99.600 109.809,100.786 109.702,101.050 109.013 C 101.425 108.037,101.052 107.618,100.300 108.172 M99.500 110.718 C 98.976 110.823,98.800 111.254,98.800 112.429 C 98.800 113.293,98.620 114.000,98.400 114.000 C 98.180 114.000,98.000 114.720,98.000 115.600 C 98.000 116.480,97.820 117.200,97.600 117.200 C 97.380 117.200,97.200 117.554,97.200 117.987 C 97.200 118.523,97.392 118.701,97.800 118.545 C 98.130 118.418,98.400 117.884,98.400 117.357 C 98.400 116.831,98.580 116.400,98.800 116.400 C 99.020 116.400,99.200 115.764,99.200 114.986 C 99.200 114.208,99.485 113.137,99.833 112.606 C 100.605 111.427,100.446 110.528,99.500 110.718 M97.264 120.100 C 97.229 120.485,96.930 120.800,96.600 120.800 C 96.200 120.800,96.000 121.200,96.000 122.000 C 96.000 122.811,96.199 123.200,96.613 123.200 C 97.409 123.200,97.696 122.398,97.492 120.738 C 97.402 120.002,97.299 119.715,97.264 120.100 M96.041 125.924 C 96.016 126.962,95.841 127.549,95.600 127.400 C 95.338 127.238,95.200 130.063,95.200 135.576 C 95.200 140.925,95.346 144.000,95.600 144.000 C 95.820 144.000,96.000 144.570,96.000 145.267 C 96.000 145.963,96.117 146.417,96.259 146.274 C 96.607 145.927,96.688 126.926,96.349 125.400 C 96.109 124.323,96.078 124.376,96.041 125.924 M96.028 149.300 C 96.047 150.708,96.157 151.142,96.362 150.618 C 96.666 149.841,96.672 149.841,97.122 150.618 C 97.650 151.527,97.804 149.803,97.348 148.100 C 96.863 146.290,95.998 147.076,96.028 149.300 M97.200 153.200 C 97.200 153.640,97.380 154.000,97.600 154.000 C 97.820 154.000,98.000 154.641,98.000 155.424 C 98.000 156.271,98.162 156.747,98.400 156.600 C 98.646 156.448,98.812 157.170,98.832 158.476 C 98.849 159.644,98.951 160.385,99.057 160.122 C 99.164 159.860,99.510 159.744,99.826 159.865 C 100.606 160.164,100.568 159.025,99.771 158.229 C 99.426 157.883,99.199 157.173,99.267 156.652 C 99.335 156.131,99.184 155.276,98.932 154.752 C 98.679 154.229,98.372 153.485,98.249 153.100 C 97.943 152.144,97.200 152.214,97.200 153.200 M99.833 161.458 C 99.459 162.433,99.559 162.800,100.200 162.800 C 100.603 162.800,100.800 163.203,100.800 164.024 C 100.800 164.737,100.967 165.144,101.200 165.000 C 101.427 164.860,101.600 165.196,101.600 165.776 C 101.600 166.339,101.780 166.800,102.000 166.800 C 102.220 166.800,102.400 167.160,102.400 167.600 C 102.400 168.044,102.667 168.400,103.000 168.400 C 103.373 168.400,103.600 168.778,103.600 169.400 C 103.600 169.950,103.780 170.400,104.000 170.400 C 104.220 170.400,104.400 170.850,104.400 171.400 C 104.400 171.950,104.625 172.403,104.900 172.406 C 105.233 172.410,105.200 172.542,104.800 172.800 C 104.400 173.058,104.367 173.190,104.700 173.194 C 104.975 173.197,105.200 173.464,105.200 173.787 C 105.200 174.145,105.435 174.285,105.800 174.145 C 106.223 173.982,106.400 174.178,106.400 174.810 C 106.400 175.303,106.777 176.033,107.237 176.432 C 107.697 176.831,107.956 177.347,107.813 177.579 C 107.668 177.814,107.872 178.003,108.276 178.006 C 108.797 178.011,108.857 178.103,108.492 178.334 C 108.124 178.569,108.260 178.804,108.992 179.196 C 109.547 179.493,110.000 180.081,110.000 180.503 C 110.000 180.926,110.810 182.059,111.800 183.021 C 112.790 183.983,113.600 184.955,113.600 185.181 C 113.600 185.895,114.950 187.200,115.689 187.200 C 116.080 187.200,116.400 187.478,116.400 187.817 C 116.400 188.788,117.873 190.119,119.090 190.248 C 120.086 190.353,119.882 190.054,117.100 187.333 C 115.395 185.666,114.000 184.091,114.000 183.834 C 114.000 183.577,113.190 182.572,112.200 181.600 C 111.210 180.628,110.400 179.627,110.400 179.375 C 110.400 179.123,109.950 178.431,109.400 177.838 C 108.850 177.244,108.400 176.498,108.400 176.179 C 108.400 175.861,108.258 175.600,108.084 175.600 C 107.910 175.600,107.242 174.700,106.600 173.600 C 105.958 172.500,105.290 171.600,105.116 171.600 C 104.942 171.600,104.800 171.060,104.800 170.400 C 104.800 169.740,104.620 169.200,104.400 169.200 C 104.180 169.200,104.000 168.853,104.000 168.429 C 104.000 168.005,103.550 167.304,103.000 166.871 C 102.401 166.400,102.000 165.676,102.000 165.066 C 102.000 164.506,101.820 163.936,101.600 163.800 C 101.380 163.664,101.200 163.043,101.200 162.419 C 101.200 161.181,100.207 160.483,99.833 161.458 " stroke="none" fill="#b3d3aa" fill-rule="evenodd"></path><path id="path4" d="M242.659 112.274 C 242.515 112.418,242.634 112.911,242.924 113.368 C 243.214 113.826,243.668 115.190,243.933 116.400 C 244.198 117.610,244.594 119.410,244.813 120.400 C 247.253 131.446,246.321 149.732,242.920 157.520 C 242.603 158.246,241.989 159.956,241.555 161.320 C 240.471 164.734,239.590 166.815,237.965 169.800 C 236.815 171.913,236.380 172.729,235.526 174.371 C 235.135 175.125,234.390 176.205,233.871 176.771 C 233.352 177.337,232.507 178.520,231.993 179.400 C 231.479 180.280,230.325 181.810,229.429 182.800 C 228.533 183.790,227.181 185.410,226.425 186.400 C 224.912 188.382,217.386 195.074,215.678 195.957 C 215.085 196.264,214.203 196.906,213.718 197.385 C 213.233 197.863,212.153 198.602,211.318 199.027 C 210.483 199.452,209.064 200.283,208.165 200.874 C 206.483 201.980,203.557 203.376,200.400 204.579 C 199.410 204.956,197.880 205.589,197.000 205.986 C 191.325 208.547,180.550 210.398,171.284 210.403 C 163.698 210.407,155.613 209.229,147.600 206.953 C 147.050 206.796,146.240 206.442,145.800 206.164 C 145.360 205.887,143.830 205.272,142.400 204.798 C 140.970 204.325,139.629 203.771,139.420 203.568 C 139.211 203.366,138.802 203.200,138.510 203.200 C 138.219 203.200,137.065 202.570,135.945 201.800 C 134.826 201.030,133.754 200.400,133.563 200.400 C 133.033 200.400,128.798 197.635,127.028 196.134 C 126.163 195.400,125.257 194.800,125.013 194.800 C 124.769 194.800,123.677 193.884,122.585 192.764 C 120.384 190.506,118.923 189.715,118.235 190.409 C 117.920 190.726,117.982 190.778,118.455 190.598 C 118.902 190.428,119.729 190.966,121.055 192.289 C 122.125 193.357,123.810 194.789,124.800 195.473 C 125.790 196.157,127.140 197.185,127.800 197.758 C 128.460 198.330,129.203 198.799,129.451 198.800 C 129.699 198.800,130.102 199.040,130.345 199.334 C 130.589 199.628,131.646 200.298,132.694 200.823 C 133.742 201.347,135.157 202.187,135.838 202.688 C 136.519 203.190,137.286 203.600,137.543 203.600 C 137.800 203.600,138.323 203.765,138.705 203.966 C 139.447 204.357,141.320 205.142,143.600 206.017 C 144.370 206.313,145.590 206.880,146.312 207.277 C 147.034 207.675,148.123 208.000,148.732 208.000 C 149.341 208.000,150.011 208.166,150.220 208.369 C 150.712 208.847,154.391 209.632,157.200 209.858 C 158.410 209.956,159.760 210.214,160.200 210.432 C 161.222 210.937,180.830 210.648,184.400 210.074 C 188.941 209.345,191.124 208.869,191.947 208.428 C 192.387 208.193,193.299 208.000,193.974 208.000 C 194.648 208.000,195.200 207.820,195.200 207.600 C 195.200 207.380,195.472 207.200,195.805 207.200 C 196.138 207.200,196.723 207.029,197.105 206.819 C 197.730 206.477,199.010 205.926,202.000 204.713 C 202.550 204.489,203.313 204.148,203.695 203.953 C 204.077 203.759,204.575 203.600,204.803 203.600 C 205.189 203.600,208.355 201.684,208.800 201.181 C 208.910 201.057,209.841 200.566,210.870 200.090 C 211.898 199.614,213.195 198.769,213.751 198.212 C 214.308 197.656,214.870 197.200,214.999 197.200 C 216.246 197.200,225.827 188.587,228.349 185.200 C 228.922 184.430,229.933 183.242,230.596 182.559 C 231.259 181.877,232.062 180.797,232.381 180.159 C 232.700 179.522,233.466 178.450,234.084 177.777 C 234.702 177.104,235.530 175.934,235.923 175.177 C 236.317 174.420,236.834 173.440,237.073 173.000 C 237.311 172.560,237.749 171.660,238.045 171.000 C 238.341 170.340,238.992 169.243,239.492 168.562 C 239.991 167.881,240.400 166.936,240.400 166.462 C 240.400 165.988,240.580 165.600,240.800 165.600 C 241.020 165.600,241.200 165.186,241.200 164.680 C 241.200 164.174,241.343 163.589,241.518 163.380 C 241.693 163.171,242.174 161.920,242.589 160.600 C 243.003 159.280,243.490 158.029,243.671 157.820 C 243.852 157.611,244.000 157.056,244.000 156.587 C 244.000 156.117,244.135 155.598,244.300 155.434 C 244.715 155.018,245.542 151.577,246.086 148.000 C 246.700 143.966,246.686 126.618,246.066 122.800 C 245.385 118.600,244.640 115.307,244.294 114.960 C 244.132 114.799,243.994 114.382,243.987 114.033 C 243.971 113.217,243.001 111.933,242.659 112.274 M225.505 482.283 C 226.002 482.379,226.722 482.375,227.105 482.275 C 227.487 482.175,227.080 482.096,226.200 482.101 C 225.320 482.105,225.007 482.187,225.505 482.283 " stroke="none" fill="#e2d47a" fill-rule="evenodd"></path></g></svg>